<?xml version="1.0" standalone="no"?><!DOCTYPE svg PUBLIC "-//W3C//DTD SVG 1.1//EN" "http://www.w3.org/Graphics/SVG/1.1/DTD/svg11.dtd"><svg t="1664888897754" class="icon" viewBox="0 0 1024 1024" version="1.1" xmlns="http://www.w3.org/2000/svg" p-id="28803" xmlns:xlink="http://www.w3.org/1999/xlink" width="200" height="200"><path d="M361.088 290.56l140.074667 580.949333c7.594667 31.445333 51.669333 33.066667 61.568 2.304l138.965333-431.914666 25.002667 89.429333a32 32 0 0 0 30.805333 23.381333h149.077333a32 32 0 0 0 0-64h-124.8l-47.146666-168.533333c-8.533333-30.592-51.541333-31.402667-61.269334-1.194667l-136.661333 424.832L393.6 152.490667c-7.765333-32.298667-53.504-32.810667-62.037333-0.682667L241.92 490.709333H117.333333a32 32 0 0 0 0 64h149.162667a32 32 0 0 0 30.933333-23.808L361.088 290.56z" p-id="28804"></path></svg>