<?xml version="1.0" standalone="no"?><!DOCTYPE svg PUBLIC "-//W3C//DTD SVG 1.1//EN" "http://www.w3.org/Graphics/SVG/1.1/DTD/svg11.dtd"><svg t="1664887454609" class="icon" viewBox="0 0 1024 1024" version="1.1" xmlns="http://www.w3.org/2000/svg" p-id="25070" xmlns:xlink="http://www.w3.org/1999/xlink" width="200" height="200"><path d="M380.416 489.984h-281.6a51.264 51.264 0 0 1-51.2-51.2v-281.6c0-28.224 22.976-51.2 51.2-51.2h281.6c28.224 0 51.2 22.976 51.2 51.2v281.6c0 28.224-22.976 51.2-51.2 51.2z m-281.6-332.8v281.6h281.6v-281.6h-281.6zM726.016 548.288a51.008 51.008 0 0 1-36.224-14.976L490.688 334.208c-9.664-9.664-14.976-22.528-14.976-36.224s5.312-26.496 14.976-36.224L689.792 62.656a52.48 52.48 0 0 1 72.384 0L961.28 261.76c9.664 9.664 14.976 22.528 14.976 36.224s-5.312 26.496-14.976 36.224l-199.104 199.104a50.88 50.88 0 0 1-36.224 14.976z m0-51.2z m0-398.272L526.912 297.92l199.104 199.104 199.104-199.104-199.104-199.104zM380.416 976.384h-281.6a51.264 51.264 0 0 1-51.2-51.2v-281.6c0-28.224 22.976-51.2 51.2-51.2h281.6c28.224 0 51.2 22.976 51.2 51.2v281.6c0 28.224-22.976 51.2-51.2 51.2z m-281.6-332.8v281.6h281.6v-281.6h-281.6zM866.816 976.384h-281.6a51.264 51.264 0 0 1-51.2-51.2v-281.6c0-28.224 22.976-51.2 51.2-51.2h281.6c28.224 0 51.2 22.976 51.2 51.2v281.6c0 28.224-22.976 51.2-51.2 51.2z m-281.6-332.8v281.6h281.664l-0.064-281.6h-281.6z" p-id="25071"></path></svg>