<?xml version="1.0" standalone="no"?><!DOCTYPE svg PUBLIC "-//W3C//DTD SVG 1.1//EN" "http://www.w3.org/Graphics/SVG/1.1/DTD/svg11.dtd"><svg t="1664889077053" class="icon" viewBox="0 0 1024 1024" version="1.1" xmlns="http://www.w3.org/2000/svg" p-id="33174" xmlns:xlink="http://www.w3.org/1999/xlink" width="200" height="200"><path d="M597.333333 85.333333a341.333333 341.333333 0 0 1 140.458667 652.501334A341.333333 341.333333 0 1 1 286.122667 286.165333 341.461333 341.461333 0 0 1 597.333333 85.333333z m-128 298.666667H384v42.666667a106.666667 106.666667 0 0 0-6.997333 213.12L384 640h85.333333l3.84 0.341333a21.333333 21.333333 0 0 1 0 41.984L469.333333 682.666667H298.666667v85.333333h85.333333v42.666667h85.333333v-42.666667a106.666667 106.666667 0 0 0 6.997334-213.12L469.333333 554.666667H384l-3.84-0.341334a21.333333 21.333333 0 0 1 0-41.984L384 512h170.666667v-85.333333h-85.333334V384z m128-213.333333a255.36 255.36 0 0 0-191.317333 85.888 341.333333 341.333333 0 0 1 361.386667 361.429333A256 256 0 0 0 597.333333 170.666667z" p-id="33175"></path></svg>