<svg width="68" height="68" viewBox="0 0 68 68" fill="none" xmlns="http://www.w3.org/2000/svg">
<g id="Group 4">
<circle id="Oval" cx="30" cy="30" r="30" fill="#B05FFF"/>
<g id="Path">
<path id="Icon/Path" fill-rule="evenodd" clip-rule="evenodd" d="M43.75 38.3791C43.75 38.9964 43.5339 39.5212 43.1018 39.9533L39.9533 43.1018C39.5212 43.5339 38.9964 43.75 38.3791 43.75C37.7617 43.75 37.237 43.5339 36.8048 43.1018L30 36.2969L23.1952 43.1018C22.763 43.5339 22.2383 43.75 21.6209 43.75C21.0036 43.75 20.4788 43.5339 20.0467 43.1018L16.8982 39.9533C16.4661 39.5212 16.25 38.9964 16.25 38.3791C16.25 37.7617 16.4661 37.237 16.8982 36.8048L23.7031 30L16.8982 23.1952C16.4661 22.763 16.25 22.2383 16.25 21.6209C16.25 21.0036 16.4661 20.4788 16.8982 20.0467L20.0467 16.8982C20.4788 16.4661 21.0036 16.25 21.6209 16.25C22.2383 16.25 22.763 16.4661 23.1952 16.8982L30 23.7031L36.8048 16.8982C37.237 16.4661 37.7617 16.25 38.3791 16.25C38.9964 16.25 39.5212 16.4661 39.9533 16.8982L43.1018 20.0467C43.5339 20.4788 43.75 21.0036 43.75 21.6209C43.75 22.2383 43.5339 22.763 43.1018 23.1952L36.2969 30L43.1018 36.8048C43.5339 37.237 43.75 37.7617 43.75 38.3791V38.3791Z" fill="white"/>
</g>
</g>
</svg>
