<svg width="24" height="24" viewBox="0 0 24 24" fill="none" xmlns="http://www.w3.org/2000/svg">
<g id="discord" clip-path="url(#clip0_2_329)">
<path id="Vector" d="M0 12C0 15.1826 1.26428 18.2348 3.51472 20.4853C5.76516 22.7357 8.8174 24 12 24C15.1826 24 18.2348 22.7357 20.4853 20.4853C22.7357 18.2348 24 15.1826 24 12C24 8.8174 22.7357 5.76516 20.4853 3.51472C18.2348 1.26428 15.1826 0 12 0C8.8174 0 5.76516 1.26428 3.51472 3.51472C1.26428 5.76516 0 8.8174 0 12H0Z" fill="#738BD8"/>
<path id="Vector_2" d="M4.47461 5.49152H19.5254V16.678H4.47461V5.49152Z" fill="white"/>
<path id="Vector_3" d="M16.363 21.8502L3.68643 20.223C2.31698 20.0473 2.38799 15.7426 2.50846 14.3671L3.11864 7.40102C3.2391 6.02557 4.86135 4.58337 6.22879 4.39254L17.161 2.86711C18.5285 2.67633 21.3151 7.85109 21.2881 9.23152L21.0847 19.6637M12 7.03999C9.31999 7.03999 7.43999 8.19 7.43999 8.19C8.47 7.27001 10.27 6.73999 10.27 6.73999L10.1 6.57C8.41 6.6 6.88 7.77 6.88 7.77C5.15999 11.36 5.26999 14.46 5.26999 14.46C6.67 16.27 8.74999 16.14 8.74999 16.14L9.46 15.24C8.20999 14.97 7.42 13.86 7.42 13.86C7.42 13.86 9.29999 15.14 12 15.14C14.7 15.14 16.58 13.86 16.58 13.86C16.58 13.86 15.79 14.97 14.54 15.24L15.25 16.14C15.25 16.14 17.33 16.27 18.73 14.46C18.73 14.46 18.84 11.36 17.12 7.77C17.12 7.77 15.59 6.6 13.9 6.57L13.73 6.73999C13.73 6.73999 15.53 7.27001 16.56 8.19C16.56 8.19 14.68 7.03999 12 7.03999M9.92999 10.83C10.58 10.83 11.11 11.4 11.1 12.1C11.1 12.79 10.58 13.37 9.92999 13.37C9.28999 13.37 8.77 12.79 8.77 12.1C8.77 11.4 9.28 10.83 9.92999 10.83M14.1 10.83C14.75 10.83 15.27 11.4 15.27 12.1C15.27 12.79 14.75 13.37 14.1 13.37C13.46 13.37 12.94 12.79 12.94 12.1C12.94 11.4 13.45 10.83 14.1 10.83Z" fill="#738BD8"/>
</g>
<defs>
<clipPath id="clip0_2_329">
<rect width="24" height="24" fill="white"/>
</clipPath>
</defs>
</svg>
