<svg width="68" height="68" viewBox="0 0 68 68" fill="none" xmlns="http://www.w3.org/2000/svg">
<g id="Group 5">
<circle id="Oval Copy 3" cx="30" cy="30" r="30" fill="#FF9877"/>
<g id="5bedc0740ebbf8ae764905df1a921b75">
<path id="Icon/heart" fill-rule="evenodd" clip-rule="evenodd" d="M47 25.7777C47 28.4267 45.8012 30.8127 43.8919 32.4643H43.9054L33.5946 42.2841C32.5642 43.2655 31.5304 44.25 30.5 44.25C29.4696 44.25 28.4358 43.2687 27.4054 42.2841L17.0946 32.4643H17.1114C15.1988 30.8095 14 28.4267 14 25.7777C14 20.7908 18.2462 16.75 23.4791 16.75C26.2639 16.75 28.7658 17.8949 30.5 19.7101C32.2342 17.8917 34.7361 16.75 37.5209 16.75C42.7538 16.75 47 20.7908 47 25.7777" fill="white"/>
</g>
</g>
</svg>
