<svg width="16" height="16" viewBox="0 0 16 16" fill="none" xmlns="http://www.w3.org/2000/svg">
<g id="2dc9ca615d62ec4697e224d82b69ae05">
<path id="Icon/bag" fill-rule="evenodd" clip-rule="evenodd" d="M14.1733 3.26497H10.6125V2.11992C10.6125 1.68589 10.2563 1.33334 9.81776 1.33334H6.18365C5.7451 1.33334 5.38888 1.68589 5.38888 2.11992V3.26497H1.8281C1.186 3.26497 0.666626 3.78492 0.666626 4.42633V13.5053C0.666626 14.1467 1.1875 14.6667 1.8281 14.6667H14.1718C14.8139 14.6667 15.3333 14.1467 15.3333 13.5053V4.42633C15.3348 3.78492 14.8154 3.26497 14.1733 3.26497ZM5.99996 2.29226C5.99996 2.13199 6.13548 2 6.30314 2H9.69678C9.86304 2 9.99996 2.13064 9.99996 2.29226V3.33334H5.99996V2.29226ZM14.6666 9.55935H9.50124V9.75758C9.50124 9.89142 9.37496 10 9.21933 10H6.30627C6.15063 10 6.02436 9.89142 6.02436 9.75758V9.55935H0.666626V9.10606H6.02436V8.90909C6.02436 8.77526 6.15063 8.66667 6.30627 8.66667H9.21933C9.37496 8.66667 9.50124 8.77526 9.50124 8.90909V9.10606H14.6666V9.55935V9.55935Z" fill="#988DA2"/>
</g>
</svg>
