<svg xmlns="http://www.w3.org/2000/svg" xmlns:xlink="http://www.w3.org/1999/xlink" width="940" zoomAndPan="magnify" viewBox="0 0 705 591.000005" height="788" preserveAspectRatio="xMidYMid meet" version="1.0"><defs><g/><clipPath id="08d003ee5e"><path d="M 326.371094 422.234375 L 345.839844 422.234375 L 345.839844 441.703125 L 326.371094 441.703125 Z M 326.371094 422.234375 " clip-rule="nonzero"/></clipPath></defs><g clip-path="url(#08d003ee5e)"><path fill="#ea728c" d="M 345.839844 431.96875 C 345.839844 432.609375 345.777344 433.242188 345.652344 433.867188 C 345.527344 434.496094 345.34375 435.101562 345.097656 435.695312 C 344.855469 436.285156 344.554688 436.84375 344.199219 437.375 C 343.84375 437.90625 343.441406 438.398438 342.988281 438.851562 C 342.535156 439.304688 342.042969 439.707031 341.511719 440.0625 C 340.980469 440.417969 340.421875 440.71875 339.832031 440.960938 C 339.238281 441.207031 338.632812 441.390625 338.003906 441.515625 C 337.378906 441.640625 336.746094 441.703125 336.105469 441.703125 C 335.464844 441.703125 334.832031 441.640625 334.207031 441.515625 C 333.578125 441.390625 332.972656 441.207031 332.378906 440.960938 C 331.789062 440.71875 331.230469 440.417969 330.699219 440.0625 C 330.167969 439.707031 329.675781 439.304688 329.222656 438.851562 C 328.769531 438.398438 328.367188 437.90625 328.011719 437.375 C 327.65625 436.84375 327.359375 436.285156 327.113281 435.695312 C 326.867188 435.101562 326.683594 434.496094 326.558594 433.867188 C 326.433594 433.242188 326.371094 432.609375 326.371094 431.96875 C 326.371094 431.328125 326.433594 430.695312 326.558594 430.070312 C 326.683594 429.441406 326.867188 428.835938 327.113281 428.242188 C 327.359375 427.652344 327.65625 427.09375 328.011719 426.5625 C 328.367188 426.03125 328.769531 425.539062 329.222656 425.085938 C 329.675781 424.632812 330.167969 424.230469 330.699219 423.875 C 331.230469 423.519531 331.789062 423.222656 332.378906 422.976562 C 332.972656 422.730469 333.578125 422.546875 334.207031 422.421875 C 334.832031 422.296875 335.464844 422.234375 336.105469 422.234375 C 336.746094 422.234375 337.378906 422.296875 338.003906 422.421875 C 338.632812 422.546875 339.238281 422.730469 339.832031 422.976562 C 340.421875 423.222656 340.980469 423.519531 341.511719 423.875 C 342.042969 424.230469 342.535156 424.632812 342.988281 425.085938 C 343.441406 425.539062 343.84375 426.03125 344.199219 426.5625 C 344.554688 427.09375 344.855469 427.652344 345.097656 428.242188 C 345.34375 428.835938 345.527344 429.441406 345.652344 430.070312 C 345.777344 430.695312 345.839844 431.328125 345.839844 431.96875 Z M 345.839844 431.96875 " fill-opacity="1" fill-rule="nonzero"/></g><g fill="#523d3d" fill-opacity="1"><g transform="translate(282.061535, 556.95525)"><g><path d="M 95.730469 -37.628906 C 93.101562 -36.382812 94.070312 -37.351562 95.316406 -37.765625 C 95.59375 -38.183594 93.242188 -37.628906 91.859375 -37.214844 C 89.503906 -36.105469 87.292969 -34.445312 85.078125 -33.476562 C 81.34375 -31.957031 80.789062 -31.125 76.5 -28.914062 C 72.488281 -26.976562 72.628906 -26.839844 70.96875 -25.871094 C 70.554688 -26.007812 71.105469 -26.285156 71.246094 -26.699219 C 71.382812 -26.976562 71.382812 -26.976562 70.828125 -26.839844 C 69.722656 -26.5625 69.445312 -26.007812 68.339844 -25.316406 C 67.511719 -24.761719 67.234375 -24.625 66.957031 -24.761719 C 66.679688 -24.902344 65.851562 -24.484375 63.082031 -23.101562 C 59.761719 -21.582031 59.210938 -20.75 56.996094 -20.058594 C 57.132812 -20.613281 61.835938 -22.6875 63.082031 -23.519531 C 65.15625 -24.761719 64.742188 -25.039062 61.5625 -23.101562 C 58.378906 -21.582031 48.832031 -16.1875 45.097656 -14.941406 C 44.960938 -14.941406 45.515625 -15.21875 46.066406 -15.632812 C 50.355469 -17.707031 55.75 -20.472656 55.472656 -20.613281 C 52.292969 -19.230469 45.789062 -16.1875 42.46875 -14.800781 C 32.648438 -10.375 15.769531 -5.117188 10.238281 -17.707031 C 10.097656 -18.261719 9.820312 -18.539062 9.40625 -18.675781 C 9.128906 -18.8125 7.886719 -22.6875 7.886719 -23.65625 C 7.886719 -24.210938 7.609375 -24.761719 7.332031 -25.039062 C 6.085938 -31.542969 7.195312 -46.480469 8.578125 -53.8125 C 9.820312 -61.144531 10.929688 -66.125 12.726562 -72.074219 C 13.28125 -73.734375 13.28125 -74.980469 13.832031 -76.640625 C 14.527344 -78.714844 15.21875 -80.789062 15.910156 -82.867188 C 17.847656 -89.367188 20.890625 -96.007812 23.378906 -102.371094 C 24.902344 -106.382812 26.421875 -108.734375 28.222656 -112.746094 C 30.15625 -117.035156 30.433594 -118.417969 33.617188 -124.230469 C 36.660156 -130.175781 39.703125 -136.542969 43.160156 -142.488281 C 44.546875 -145.257812 45.097656 -146.5 46.757812 -149.683594 C 50.910156 -158.121094 55.199219 -166.285156 58.65625 -175 C 58.65625 -175 58.933594 -175.554688 59.347656 -176.246094 C 59.625 -176.9375 59.902344 -177.765625 60.039062 -178.042969 C 60.039062 -178.320312 60.179688 -178.597656 60.179688 -178.734375 C 60.316406 -178.875 60.316406 -179.703125 60.453125 -179.703125 C 60.59375 -179.566406 61.421875 -183.4375 61.699219 -184.128906 C 61.976562 -184.820312 61.976562 -189.664062 61.699219 -190.21875 C 60.316406 -193.8125 58.242188 -195.613281 55.058594 -196.441406 C 52.707031 -196.71875 51.046875 -196.441406 49.527344 -195.472656 C 48.832031 -195.058594 48.832031 -194.78125 49.25 -194.503906 C 49.527344 -194.503906 49.664062 -194.367188 49.800781 -194.230469 C 49.941406 -193.953125 50.910156 -194.230469 51.046875 -193.8125 C 51.460938 -192.84375 52.292969 -193.398438 52.847656 -192.570312 C 53.398438 -192.152344 53.398438 -192.152344 54.230469 -192.152344 C 55.199219 -192.292969 55.199219 -192.292969 55.199219 -191.878906 C 55.199219 -191.738281 55.199219 -191.460938 55.335938 -191.460938 C 55.472656 -191.324219 55.472656 -189.664062 55.335938 -189.25 C 55.058594 -188.972656 54.78125 -186.207031 54.507812 -185.511719 C 54.367188 -185.375 54.230469 -183.714844 54.089844 -183.714844 C 53.675781 -181.640625 52.570312 -178.875 51.738281 -176.9375 C 51.738281 -176.796875 51.601562 -176.523438 50.769531 -174.585938 C 50.492188 -174.03125 50.492188 -173.753906 50.355469 -173.476562 C 50.078125 -173.339844 49.941406 -172.648438 49.664062 -172.234375 C 49.25 -171.816406 49.527344 -171.816406 49.109375 -171.125 C 44.820312 -162.6875 40.257812 -153.832031 35.554688 -145.394531 C 17.570312 -111.363281 0.828125 -78.160156 0 -39.566406 C 0.277344 -31.265625 1.105469 -26.144531 4.703125 -19.230469 C 6.503906 -16.046875 9.128906 -12.035156 11.898438 -10.097656 C 15.355469 -7.054688 18.675781 -6.226562 22.132812 -5.394531 C 23.933594 -4.980469 26.285156 -4.566406 28.773438 -4.566406 C 30.433594 -4.566406 30.988281 -4.566406 31.265625 -4.84375 C 33.894531 -5.535156 37.074219 -5.671875 39.425781 -6.777344 C 43.714844 -8.023438 51.046875 -11.480469 54.230469 -13.28125 C 57.410156 -15.910156 58.519531 -16.324219 62.53125 -18.398438 C 65.019531 -19.367188 64.882812 -20.058594 66.679688 -20.613281 C 69.167969 -21.582031 72.074219 -23.65625 74.566406 -24.902344 C 79.960938 -27.945312 84.25 -30.296875 90.058594 -33.617188 C 90.472656 -33.894531 90.890625 -34.167969 90.890625 -34.167969 C 90.75 -34.308594 91.996094 -35.136719 92.273438 -35.136719 C 92.410156 -35.136719 92.273438 -35.554688 92.6875 -35.554688 C 94.347656 -36.105469 96.699219 -37.074219 98.359375 -37.90625 C 101.265625 -39.148438 97.390625 -38.457031 95.730469 -37.628906 Z M 7.054688 -63.636719 C 6.777344 -63.496094 6.777344 -64.050781 7.054688 -64.328125 C 7.195312 -64.742188 7.054688 -63.636719 7.054688 -63.636719 Z M 7.332031 -66.125 C 7.332031 -66.125 7.332031 -66.265625 7.46875 -66.402344 C 7.609375 -66.957031 7.609375 -65.574219 7.332031 -66.125 Z M 8.300781 -69.445312 C 8.300781 -69.03125 8.300781 -69.03125 8.160156 -69.308594 C 8.023438 -69.585938 8.300781 -69.863281 8.300781 -69.445312 Z M 8.300781 -58.242188 C 8.023438 -57.6875 8.300781 -58.792969 8.300781 -58.933594 C 8.578125 -59.761719 8.4375 -58.242188 8.300781 -58.242188 Z M 8.855469 -61.007812 C 8.855469 -60.316406 8.714844 -59.761719 8.578125 -59.902344 C 8.4375 -60.179688 8.855469 -60.730469 8.714844 -61.007812 C 8.578125 -61.285156 8.992188 -61.421875 8.855469 -61.007812 Z M 9.128906 -71.105469 C 9.546875 -71.660156 8.855469 -70 8.855469 -69.863281 C 8.714844 -69.585938 8.714844 -70.554688 8.714844 -70.691406 C 8.578125 -71.246094 8.855469 -70.554688 9.128906 -71.105469 Z M 9.128906 -73.042969 C 9.128906 -73.734375 9.269531 -73.183594 9.128906 -72.90625 C 9.128906 -72.765625 9.128906 -72.90625 9.128906 -73.042969 Z M 9.820312 -65.851562 C 9.820312 -65.710938 9.128906 -62.113281 8.992188 -63.082031 C 8.855469 -64.191406 9.546875 -65.019531 9.820312 -66.125 C 9.960938 -66.265625 9.960938 -66.125 9.820312 -65.851562 Z M 9.40625 -74.289062 C 9.40625 -74.566406 9.40625 -74.566406 9.546875 -74.425781 C 9.820312 -74.289062 9.269531 -73.734375 9.40625 -74.289062 Z M 9.960938 -73.320312 L 9.820312 -72.90625 L 9.820312 -73.320312 C 9.546875 -74.011719 10.097656 -73.875 9.960938 -73.320312 Z M 10.375 -74.703125 C 10.375 -74.566406 10.238281 -74.566406 10.238281 -74.84375 C 10.238281 -75.394531 10.515625 -74.84375 10.375 -74.703125 Z M 10.238281 -75.394531 C 9.820312 -75.394531 10.097656 -75.949219 10.238281 -75.949219 C 10.515625 -75.808594 10.375 -75.394531 10.238281 -75.394531 Z M 10.789062 -76.363281 C 10.652344 -75.949219 10.375 -75.949219 10.515625 -76.363281 C 10.652344 -76.777344 10.097656 -77.195312 10.375 -77.332031 C 10.789062 -77.46875 11.066406 -76.917969 10.789062 -76.363281 Z M 10.929688 -78.300781 C 10.515625 -78.300781 11.066406 -78.855469 11.207031 -78.4375 C 11.207031 -78.300781 11.066406 -78.300781 10.929688 -78.300781 Z M 11.480469 -79.269531 C 11.34375 -78.992188 11.34375 -78.992188 11.066406 -78.992188 C 10.515625 -79.269531 11.757812 -80.238281 11.480469 -79.269531 Z M 10.929688 -83.832031 C 10.929688 -84.109375 11.757812 -84.800781 12.035156 -85.078125 C 12.035156 -84.800781 12.035156 -83.972656 11.757812 -83.832031 C 11.34375 -83.695312 10.929688 -83.695312 10.929688 -83.832031 Z M 12.726562 -76.917969 C 12.726562 -76.5 12.3125 -74.703125 12.035156 -74.011719 C 11.621094 -73.042969 11.757812 -74.011719 11.898438 -74.566406 C 12.175781 -75.257812 12.035156 -76.085938 12.3125 -76.363281 C 12.449219 -76.363281 12.726562 -77.46875 12.726562 -76.917969 Z M 12.589844 -82.171875 C 12.175781 -82.035156 12.175781 -82.3125 12.589844 -82.449219 C 12.867188 -82.867188 12.726562 -82.171875 12.589844 -82.171875 Z M 12.867188 -82.867188 C 12.035156 -82.726562 13.140625 -83.695312 13.003906 -83.140625 C 13.003906 -83.003906 13.003906 -82.867188 12.867188 -82.867188 Z M 13.558594 -84.527344 C 13.417969 -83.972656 12.175781 -83.695312 12.3125 -83.003906 C 12.3125 -82.867188 12.035156 -82.726562 11.898438 -82.867188 C 11.898438 -83.140625 12.3125 -83.972656 12.589844 -83.972656 C 12.726562 -83.972656 12.726562 -84.109375 12.726562 -84.25 C 12.726562 -84.527344 13.140625 -84.386719 13.28125 -84.664062 C 13.558594 -85.078125 13.695312 -84.941406 13.558594 -84.527344 Z M 12.726562 -85.769531 C 13.140625 -85.910156 13.140625 -85.21875 12.726562 -85.632812 C 12.589844 -85.769531 12.589844 -85.769531 12.726562 -85.769531 Z M 13.558594 -85.078125 C 13.28125 -85.078125 13.28125 -85.355469 13.558594 -85.355469 C 13.695312 -85.355469 13.695312 -85.078125 13.558594 -85.078125 Z M 16.1875 -96.144531 C 16.046875 -96.144531 16.046875 -96.007812 16.046875 -95.316406 C 15.910156 -93.792969 15.21875 -93.242188 14.941406 -92.132812 C 14.941406 -91.859375 14.800781 -91.441406 14.527344 -91.304688 C 13.972656 -90.613281 14.527344 -90.058594 13.972656 -89.367188 C 13.417969 -88.8125 13.558594 -88.539062 13.28125 -88.121094 C 13.003906 -87.847656 12.726562 -87.847656 12.867188 -88.121094 C 12.867188 -88.261719 13.003906 -88.8125 13.140625 -88.8125 C 13.28125 -88.8125 13.28125 -88.953125 13.28125 -89.089844 C 13.140625 -89.644531 13.558594 -89.230469 13.417969 -89.78125 C 13.417969 -90.058594 13.417969 -90.199219 13.558594 -90.199219 C 13.695312 -90.335938 13.417969 -90.890625 13.832031 -91.164062 C 14.386719 -92.132812 14.527344 -92.964844 15.21875 -94.210938 C 15.632812 -95.179688 15.769531 -95.59375 15.632812 -95.730469 C 15.355469 -96.007812 15.910156 -96.285156 15.769531 -96.5625 C 15.769531 -97.253906 16.738281 -96.007812 16.1875 -96.144531 Z M 17.152344 -98.082031 C 17.015625 -98.082031 17.015625 -98.914062 17.152344 -98.914062 C 17.292969 -99.050781 17.292969 -99.191406 17.292969 -99.464844 C 17.292969 -99.605469 17.429688 -99.742188 17.429688 -99.742188 C 17.847656 -99.742188 17.570312 -98.222656 17.152344 -98.082031 Z M 17.984375 -96.421875 C 17.707031 -96.144531 17.984375 -95.039062 17.292969 -95.59375 C 17.152344 -95.730469 17.292969 -95.871094 17.429688 -95.871094 C 17.707031 -96.007812 17.429688 -97.253906 17.570312 -97.390625 C 17.707031 -97.945312 18.539062 -96.699219 17.984375 -96.421875 Z M 18.953125 -100.433594 C 18.8125 -100.15625 18.8125 -100.988281 18.953125 -100.851562 C 18.953125 -100.710938 18.953125 -100.574219 18.953125 -100.433594 Z M 19.507812 -99.882812 C 19.367188 -99.882812 19.367188 -98.914062 19.089844 -98.914062 C 18.675781 -98.636719 19.644531 -100.433594 19.644531 -100.15625 C 19.644531 -100.019531 19.644531 -99.882812 19.507812 -99.882812 Z M 38.734375 -138.894531 C 38.597656 -138.753906 38.597656 -139.167969 38.734375 -139.167969 C 39.011719 -139.167969 38.875 -139.03125 38.734375 -138.894531 Z M 41.226562 -143.457031 C 41.085938 -143.597656 41.777344 -144.839844 41.917969 -144.148438 C 41.917969 -143.734375 41.363281 -143.320312 41.226562 -143.457031 Z M 44.40625 -149.820312 C 44.40625 -149.40625 44.40625 -150.238281 44.40625 -150.097656 C 44.546875 -149.960938 44.546875 -149.820312 44.40625 -149.820312 Z M 43.578125 -156.460938 C 43.855469 -157.707031 43.714844 -156.046875 43.578125 -155.769531 C 43.300781 -155.355469 43.300781 -155.632812 43.578125 -156.460938 Z M 41.640625 -149.128906 C 41.917969 -149.40625 41.917969 -150.238281 42.195312 -150.375 C 42.332031 -150.511719 42.46875 -150.652344 42.46875 -150.789062 C 42.886719 -151.34375 43.300781 -152.171875 43.578125 -153.003906 C 44.820312 -155.632812 46.480469 -158.261719 47.726562 -160.890625 C 48.28125 -162.132812 49.25 -163.933594 49.941406 -165.039062 C 50.21875 -165.175781 51.046875 -168.222656 51.1875 -167.113281 C 51.324219 -166.976562 51.460938 -166.835938 51.460938 -166.835938 C 51.460938 -166.5625 50.769531 -165.59375 50.769531 -165.316406 C 50.632812 -165.039062 50.355469 -164.902344 50.355469 -164.902344 C 50.21875 -165.039062 50.21875 -164.902344 50.355469 -164.902344 C 50.492188 -164.625 50.21875 -163.933594 49.941406 -163.65625 C 47.175781 -158.675781 44.546875 -153.140625 41.777344 -148.023438 C 39.980469 -144.566406 40.535156 -147.746094 41.640625 -149.128906 Z M 38.734375 -144.566406 C 39.011719 -144.839844 39.011719 -144.839844 39.148438 -144.566406 C 39.566406 -144.289062 38.734375 -143.320312 38.597656 -143.597656 C 38.320312 -143.734375 38.457031 -144.289062 38.734375 -144.566406 Z M 37.765625 -142.074219 C 38.042969 -142.628906 38.042969 -141.660156 37.765625 -141.660156 C 37.488281 -141.660156 37.488281 -141.796875 37.765625 -142.074219 Z M 36.105469 -135.433594 C 36.246094 -135.296875 36.246094 -135.019531 35.96875 -134.464844 C 35.554688 -133.222656 35.554688 -133.496094 34.722656 -132.113281 C 33.0625 -128.519531 32.925781 -128.65625 31.679688 -126.304688 C 30.710938 -124.78125 29.464844 -121.324219 28.496094 -119.527344 C 28.222656 -118.695312 28.082031 -118.558594 27.804688 -118.558594 C 27.390625 -118.558594 27.253906 -118.558594 27.53125 -118.140625 C 27.804688 -117.726562 26.5625 -115.097656 25.871094 -114.546875 C 25.59375 -114.269531 25.316406 -113.992188 25.453125 -113.855469 C 25.453125 -113.578125 24.761719 -112.886719 24.902344 -112.609375 C 24.761719 -111.777344 23.792969 -110.535156 23.65625 -109.839844 C 23.65625 -109.703125 23.65625 -109.566406 23.519531 -109.425781 C 23.242188 -109.148438 23.378906 -108.457031 23.101562 -108.183594 C 22.824219 -107.765625 22.824219 -107.351562 22.6875 -107.074219 C 22.410156 -106.9375 22.550781 -106.382812 22.410156 -106.382812 C 21.71875 -105.691406 21.164062 -103.476562 20.613281 -102.785156 C 20.199219 -102.234375 20.058594 -102.371094 20.335938 -103.203125 C 20.613281 -104.03125 20.472656 -104.863281 21.164062 -105.691406 C 21.582031 -106.246094 21.304688 -106.523438 21.71875 -106.796875 C 21.859375 -106.9375 21.996094 -107.074219 21.996094 -107.214844 C 22.6875 -108.597656 23.519531 -111.777344 24.347656 -112.886719 C 25.039062 -113.992188 25.179688 -114.683594 26.007812 -116.066406 C 27.113281 -117.726562 26.976562 -118.832031 27.945312 -120.21875 C 28.636719 -121.1875 28.773438 -122.429688 29.464844 -123.398438 C 30.296875 -124.921875 30.574219 -126.164062 31.679688 -127.824219 C 32.511719 -129.210938 35.691406 -135.988281 36.105469 -135.433594 Z M 20.472656 -106.105469 C 20.335938 -105.554688 20.058594 -105.691406 20.199219 -106.246094 C 20.335938 -106.523438 20.058594 -107.488281 20.613281 -106.9375 C 21.027344 -106.660156 20.335938 -106.382812 20.472656 -106.105469 Z M 21.441406 -108.183594 C 21.71875 -108.320312 21.71875 -107.765625 21.441406 -107.765625 C 21.441406 -107.765625 21.304688 -107.488281 21.164062 -107.214844 C 21.164062 -106.796875 21.027344 -106.796875 20.890625 -107.074219 C 20.613281 -107.765625 20.75 -108.042969 21.441406 -108.183594 Z M 21.027344 -108.734375 C 21.027344 -109.011719 21.304688 -109.011719 21.304688 -108.734375 C 21.304688 -108.597656 21.027344 -108.597656 21.027344 -108.734375 Z M 21.441406 -109.289062 C 21.582031 -109.566406 21.582031 -109.703125 21.582031 -109.289062 C 21.582031 -109.011719 21.304688 -109.011719 21.441406 -109.289062 Z M 22.410156 -110.949219 C 22.410156 -111.363281 22.550781 -110.808594 22.410156 -110.671875 C 22.410156 -110.535156 22.410156 -110.671875 22.410156 -110.949219 Z M 24.347656 -115.238281 C 24.347656 -115.652344 24.625 -116.207031 24.761719 -116.066406 C 25.039062 -115.929688 24.484375 -113.855469 24.347656 -115.238281 Z M 27.253906 -122.152344 C 27.390625 -122.570312 27.804688 -122.429688 27.53125 -122.015625 C 27.390625 -121.738281 27.53125 -120.910156 27.253906 -120.769531 C 26.976562 -120.769531 26.976562 -121.738281 27.253906 -122.152344 Z M 28.914062 -125.472656 C 29.191406 -125.75 29.328125 -125.199219 29.191406 -125.058594 C 28.914062 -124.921875 28.773438 -125.335938 28.914062 -125.472656 Z M 33.753906 -134.464844 C 33.894531 -134.464844 33.753906 -134.328125 33.753906 -134.191406 C 33.476562 -134.050781 33.617188 -134.882812 33.753906 -134.464844 Z M 31.542969 -130.175781 C 31.816406 -130.175781 31.816406 -130.175781 31.816406 -129.902344 C 31.816406 -129.484375 31.816406 -129.484375 31.542969 -129.761719 C 31.265625 -130.039062 31.265625 -130.039062 31.542969 -130.175781 Z M 7.332031 -79.683594 C 7.46875 -79.960938 7.46875 -81.207031 7.886719 -80.789062 C 8.023438 -80.652344 8.023438 -80.515625 7.886719 -80.375 C 7.746094 -80.238281 7.746094 -80.097656 7.746094 -79.960938 C 7.746094 -79.683594 6.777344 -79.128906 7.332031 -79.683594 Z M 2.90625 -60.730469 C 3.042969 -60.59375 3.042969 -60.453125 2.90625 -60.453125 C 2.90625 -60.039062 2.765625 -60.871094 2.90625 -60.730469 Z M 0.96875 -37.488281 C 0.828125 -37.765625 0.96875 -39.011719 0.96875 -39.289062 C 0.96875 -39.011719 1.105469 -36.9375 0.96875 -37.488281 Z M 1.105469 -39.84375 C 0.96875 -39.566406 0.96875 -40.257812 0.96875 -40.117188 C 1.105469 -40.117188 1.105469 -39.980469 1.105469 -39.84375 Z M 1.105469 -42.054688 C 0.96875 -41.917969 0.96875 -41.917969 0.96875 -42.195312 C 0.96875 -42.886719 1.105469 -42.195312 1.105469 -42.054688 Z M 0.96875 -44.546875 C 0.96875 -45.097656 1.246094 -45.097656 1.246094 -44.546875 C 1.246094 -43.992188 0.96875 -43.855469 0.96875 -44.546875 Z M 1.382812 -33.203125 L 1.246094 -32.09375 C 1.246094 -32.648438 1.246094 -34.03125 1.105469 -34.445312 C 1.105469 -34.585938 1.105469 -34.585938 1.246094 -34.445312 C 1.382812 -34.445312 1.382812 -33.894531 1.382812 -33.203125 Z M 1.382812 -47.035156 C 1.246094 -46.480469 1.246094 -48.28125 1.382812 -47.726562 C 1.382812 -47.589844 1.382812 -47.175781 1.382812 -47.035156 Z M 1.660156 -50.355469 C 1.523438 -50.078125 1.523438 -50.769531 1.660156 -50.632812 C 1.660156 -50.632812 1.660156 -50.492188 1.660156 -50.355469 Z M 1.796875 -52.984375 C 1.660156 -52.847656 1.660156 -53.398438 1.796875 -53.398438 C 2.074219 -53.398438 1.9375 -53.121094 1.796875 -52.984375 Z M 2.765625 -52.847656 C 2.628906 -52.847656 2.488281 -52.847656 2.488281 -52.984375 C 2.488281 -53.539062 2.90625 -52.984375 2.765625 -52.847656 Z M 2.488281 -58.378906 C 2.351562 -58.378906 2.765625 -60.179688 2.765625 -59.902344 C 2.765625 -59.484375 2.488281 -58.101562 2.488281 -58.378906 Z M 2.90625 -54.507812 C 2.90625 -56.164062 3.734375 -59.484375 3.597656 -60.871094 C 3.734375 -62.390625 3.875 -62.253906 4.011719 -63.359375 C 4.148438 -65.710938 4.84375 -68.339844 5.535156 -71.660156 C 5.949219 -73.320312 6.085938 -73.734375 6.363281 -74.703125 C 6.640625 -74.84375 6.503906 -75.671875 6.640625 -75.808594 C 6.917969 -75.949219 7.195312 -77.332031 7.332031 -77.332031 C 7.609375 -77.46875 7.886719 -78.300781 8.300781 -79.40625 C 8.4375 -80.652344 9.683594 -83.003906 8.855469 -82.171875 C 8.714844 -81.898438 8.714844 -81.898438 8.578125 -82.035156 C 8.300781 -82.3125 8.4375 -82.867188 8.855469 -83.417969 C 9.128906 -83.832031 8.992188 -84.25 9.269531 -84.527344 C 9.683594 -84.664062 9.269531 -85.492188 9.546875 -85.632812 C 10.238281 -86.738281 10.652344 -88.539062 11.066406 -89.78125 C 11.34375 -90.890625 12.589844 -93.519531 12.867188 -94.625 C 14.386719 -98.773438 16.460938 -103.203125 18.121094 -107.351562 C 19.78125 -111.640625 21.441406 -114.128906 22.964844 -117.867188 C 23.933594 -119.800781 26.144531 -123.675781 26.699219 -125.472656 C 26.976562 -126.304688 27.667969 -126.859375 28.222656 -128.101562 C 30.019531 -131.976562 31.957031 -131.699219 29.328125 -127.6875 C 25.59375 -120.355469 21.71875 -112.46875 18.261719 -105 C 18.121094 -104.863281 18.121094 -104.445312 18.121094 -104.167969 C 18.121094 -103.476562 17.292969 -102.371094 17.015625 -101.679688 C 16.324219 -99.742188 15.492188 -97.945312 14.664062 -96.007812 C 12.867188 -91.71875 11.757812 -87.707031 10.097656 -83.417969 C 8.992188 -81.207031 8.992188 -79.960938 8.4375 -77.886719 C 7.746094 -75.394531 6.917969 -73.183594 6.363281 -70.554688 C 5.394531 -66.816406 4.566406 -63.496094 3.875 -59.484375 C 3.320312 -56.859375 3.042969 -53.539062 2.90625 -54.507812 Z M 6.503906 -66.679688 C 6.503906 -66.402344 6.226562 -66.402344 6.226562 -66.679688 C 6.226562 -66.957031 6.503906 -66.957031 6.503906 -66.679688 Z M 6.085938 -64.464844 C 6.085938 -64.328125 5.949219 -64.464844 5.949219 -64.742188 C 5.949219 -65.574219 6.085938 -64.742188 6.085938 -64.464844 Z M 5.671875 -62.390625 C 5.535156 -62.253906 5.535156 -62.390625 5.535156 -62.667969 C 5.535156 -63.222656 5.671875 -62.667969 5.671875 -62.390625 Z M 4.980469 -59.625 C 4.84375 -59.347656 4.84375 -59.347656 4.84375 -59.625 C 4.703125 -59.902344 5.117188 -59.902344 4.980469 -59.625 Z M 4.425781 -48.972656 C 4.425781 -48.695312 4.425781 -48.558594 4.289062 -48.558594 C 4.011719 -48.417969 4.566406 -49.800781 4.425781 -48.972656 Z M 4.289062 -47.726562 C 4.289062 -47.589844 4.289062 -47.449219 4.148438 -47.449219 C 3.875 -47.3125 4.148438 -48.140625 4.289062 -47.726562 Z M 4.289062 -49.664062 C 4.289062 -49.800781 4.425781 -49.941406 4.425781 -49.800781 C 4.566406 -49.800781 4.425781 -49.25 4.289062 -49.664062 Z M 3.597656 -25.59375 C 3.457031 -25.59375 3.320312 -26.144531 3.320312 -26.285156 C 3.457031 -26.285156 3.734375 -25.59375 3.597656 -25.59375 Z M 3.320312 -24.347656 C 3.183594 -24.625 3.183594 -25.730469 3.320312 -25.039062 C 3.320312 -24.761719 4.148438 -23.519531 3.320312 -24.347656 Z M 4.011719 -44.269531 C 3.875 -44.128906 3.875 -44.960938 4.011719 -44.960938 C 4.011719 -44.960938 4.148438 -44.128906 4.011719 -44.269531 Z M 3.875 -45.652344 C 3.875 -46.066406 4.148438 -45.789062 4.011719 -45.515625 C 3.875 -45.375 3.875 -45.375 3.875 -45.652344 Z M 4.289062 -46.757812 C 4.148438 -46.621094 4.011719 -46.480469 3.875 -46.757812 C 3.597656 -47.175781 4.425781 -47.3125 4.289062 -46.757812 Z M 4.980469 -21.164062 C 4.84375 -21.304688 4.289062 -22.410156 4.289062 -22.550781 C 4.289062 -22.964844 5.671875 -20.335938 4.980469 -21.164062 Z M 5.257812 -52.984375 C 5.117188 -52.984375 4.980469 -52.847656 4.980469 -52.570312 C 4.980469 -52.152344 4.84375 -51.878906 4.703125 -52.292969 C 4.566406 -52.707031 4.703125 -53.8125 5.257812 -53.121094 C 5.394531 -52.984375 5.394531 -52.847656 5.257812 -52.984375 Z M 5.671875 -34.585938 C 5.535156 -34.308594 5.535156 -34.585938 5.535156 -35 C 5.535156 -35.414062 5.535156 -35.554688 5.671875 -35.277344 C 5.671875 -35.136719 5.671875 -34.722656 5.671875 -34.585938 Z M 5.671875 -55.75 C 5.394531 -55.75 5.808594 -54.644531 5.535156 -54.644531 C 5.117188 -54.507812 5.257812 -54.089844 5.117188 -53.953125 C 4.84375 -53.675781 4.980469 -54.644531 5.257812 -55.058594 C 5.535156 -55.335938 5.535156 -55.472656 5.257812 -55.472656 C 4.703125 -55.613281 6.226562 -56.304688 5.671875 -55.75 Z M 5.949219 -43.023438 C 5.808594 -42.886719 5.808594 -42.886719 5.808594 -43.023438 C 5.808594 -43.4375 5.949219 -43.160156 5.949219 -43.023438 Z M 6.085938 -45.515625 C 5.949219 -45.097656 5.949219 -45.097656 5.949219 -45.789062 C 5.949219 -46.34375 5.949219 -46.480469 6.085938 -46.34375 C 6.226562 -46.066406 6.226562 -45.789062 6.085938 -45.515625 Z M 6.226562 -57.824219 C 5.949219 -56.859375 4.980469 -57.964844 5.808594 -57.824219 C 6.085938 -57.6875 6.085938 -57.824219 6.085938 -57.964844 C 6.085938 -58.519531 6.503906 -58.378906 6.226562 -57.824219 Z M 6.085938 -58.65625 C 5.949219 -59.070312 5.949219 -59.070312 6.226562 -59.070312 C 6.640625 -59.070312 6.363281 -58.101562 6.085938 -58.65625 Z M 6.640625 -61.976562 C 6.503906 -61.699219 6.363281 -61.699219 6.363281 -62.113281 C 6.363281 -62.53125 6.777344 -62.253906 6.640625 -61.976562 Z M 6.777344 -63.359375 C 6.777344 -63.359375 6.777344 -63.222656 6.777344 -63.082031 C 6.640625 -62.804688 6.640625 -63.496094 6.777344 -63.359375 Z M 7.195312 -24.347656 C 7.195312 -24.210938 7.195312 -24.210938 7.195312 -24.484375 C 7.195312 -24.902344 7.332031 -24.625 7.195312 -24.347656 Z M 7.609375 -17.429688 C 7.46875 -17.292969 7.46875 -17.292969 7.46875 -17.570312 C 7.46875 -17.984375 7.609375 -17.707031 7.609375 -17.429688 Z M 49.25 -13.28125 C 49.25 -13.140625 49.109375 -13.140625 48.972656 -13.003906 C 48.558594 -12.726562 49.386719 -13.695312 49.25 -13.28125 Z M 55.058594 -15.910156 C 54.921875 -15.769531 54.089844 -15.769531 54.921875 -16.046875 C 55.058594 -16.046875 55.058594 -16.046875 55.058594 -15.910156 Z M 55.058594 -16.601562 C 54.644531 -16.601562 55.058594 -17.015625 55.199219 -16.738281 C 55.199219 -16.601562 55.199219 -16.601562 55.058594 -16.601562 Z M 55.335938 -19.089844 C 54.644531 -18.8125 54.367188 -18.675781 54.644531 -18.953125 C 55.058594 -19.367188 56.71875 -19.921875 55.335938 -19.089844 Z M 63.773438 -20.472656 C 63.496094 -20.335938 63.496094 -20.335938 63.636719 -20.472656 C 63.914062 -20.75 64.191406 -20.613281 63.773438 -20.472656 Z M 70.828125 -25.316406 C 70.691406 -25.179688 70.136719 -25.039062 70.554688 -25.316406 C 70.691406 -25.453125 71.105469 -25.59375 70.828125 -25.316406 Z M 87.984375 -33.617188 C 87.984375 -33.617188 87.847656 -33.476562 87.707031 -33.476562 C 87.015625 -33.476562 88.121094 -33.894531 87.984375 -33.617188 Z M 89.921875 -34.585938 C 89.503906 -34.308594 89.089844 -34.167969 88.8125 -34.03125 C 88.539062 -34.03125 88.398438 -34.03125 88.8125 -34.167969 C 89.367188 -34.722656 91.859375 -35.554688 89.921875 -34.585938 Z M 92.410156 -36.660156 C 92.273438 -36.660156 92.273438 -36.796875 92.273438 -36.796875 C 92.273438 -36.9375 92.824219 -36.660156 92.410156 -36.660156 Z M 113.023438 -40.117188 C 105.828125 -45.238281 93.242188 -40.117188 86.046875 -36.9375 C 80.515625 -34.585938 77.746094 -33.203125 72.628906 -30.433594 C 69.585938 -28.914062 68.339844 -28.222656 67.234375 -27.113281 C 66.542969 -26.285156 65.019531 -26.007812 65.851562 -25.453125 C 65.988281 -25.316406 66.125 -25.316406 66.125 -25.316406 C 66.265625 -25.316406 67.785156 -26.144531 67.785156 -26.144531 C 68.753906 -26.699219 72.074219 -28.773438 72.90625 -29.464844 C 74.289062 -30.851562 83.972656 -35.277344 86.324219 -36.246094 C 91.027344 -38.320312 98.914062 -41.640625 103.894531 -41.640625 C 104.863281 -41.640625 104.863281 -41.640625 104.167969 -41.5 C 102.09375 -40.949219 105.554688 -41.226562 106.523438 -41.226562 C 108.597656 -41.226562 109.839844 -40.808594 111.226562 -39.980469 C 112.195312 -39.566406 112.746094 -37.628906 113.714844 -37.351562 C 114.269531 -38.042969 113.714844 -39.84375 113.023438 -40.117188 Z M 63.636719 -24.761719 C 64.464844 -25.179688 63.359375 -24.761719 63.222656 -24.902344 C 63.082031 -24.625 63.082031 -24.347656 63.636719 -24.761719 Z M 63.636719 -24.761719 "/></g></g></g><g fill="#523d3d" fill-opacity="1"><g transform="translate(347.772627, 556.95525)"><g><path d="M 18.539062 -94.210938 C 18.261719 -94.484375 15.769531 -94.484375 15.492188 -94.484375 C 15.492188 -94.625 15.910156 -95.316406 15.910156 -95.316406 C 16.601562 -96.285156 15.632812 -97.390625 14.664062 -97.804688 C 13.140625 -98.636719 11.480469 -98.359375 10.515625 -97.945312 C 9.960938 -97.945312 10.097656 -97.667969 9.546875 -97.667969 C 9.128906 -98.082031 7.609375 -96.007812 7.332031 -95.59375 C 5.808594 -93.933594 2.765625 -89.230469 1.382812 -85.910156 C 0.277344 -83.140625 -1.105469 -80.929688 -1.796875 -78.578125 C -3.597656 -73.875 -5.671875 -68.203125 -5.671875 -63.359375 C -5.394531 -60.453125 -5.117188 -60.316406 -4.703125 -58.101562 C -4.566406 -57.132812 -2.628906 -55.058594 -1.523438 -54.230469 C 4.566406 -52.847656 8.992188 -57.964844 12.3125 -62.113281 C 16.1875 -66.957031 18.539062 -71.246094 21.441406 -76.917969 C 23.933594 -82.449219 27.390625 -92.132812 18.539062 -94.210938 Z M 4.980469 -89.230469 C 5.117188 -90.199219 5.257812 -88.953125 4.980469 -88.8125 C 4.84375 -88.675781 4.84375 -88.675781 4.980469 -89.230469 Z M 2.628906 -84.941406 C 2.765625 -86.046875 3.042969 -86.046875 3.457031 -86.601562 C 3.457031 -86.878906 3.875 -87.292969 4.011719 -87.570312 C 4.011719 -87.707031 4.148438 -87.570312 4.148438 -87.429688 C 4.148438 -87.152344 3.042969 -85.492188 3.042969 -85.078125 C 3.183594 -84.664062 2.488281 -84.109375 2.628906 -84.941406 Z M -2.351562 -74.84375 C -2.351562 -75.671875 -1.9375 -75.535156 -2.074219 -75.117188 C -2.351562 -74.84375 -2.488281 -74.148438 -2.351562 -74.84375 Z M -2.765625 -73.457031 C -2.765625 -73.320312 -2.628906 -73.183594 -2.765625 -73.183594 C -2.765625 -72.90625 -2.765625 -73.457031 -2.765625 -73.457031 Z M -4.148438 -67.785156 C -4.011719 -69.585938 -3.320312 -71.246094 -3.042969 -72.488281 C -2.628906 -72.074219 -4.148438 -67.785156 -4.148438 -66.957031 Z M -4.425781 -66.542969 C -4.289062 -66.542969 -4.425781 -66.125 -4.425781 -66.402344 C -4.425781 -66.542969 -4.425781 -66.679688 -4.425781 -66.542969 Z M -3.597656 -63.359375 C -3.734375 -63.222656 -3.734375 -63.914062 -3.597656 -63.773438 C -3.597656 -63.636719 -3.597656 -63.496094 -3.597656 -63.359375 Z M -2.488281 -69.308594 C -2.90625 -67.648438 -3.597656 -64.605469 -3.597656 -64.328125 C -3.597656 -64.191406 -3.597656 -64.191406 -3.734375 -64.191406 C -4.289062 -64.050781 -4.289062 -62.804688 -4.425781 -62.253906 C -4.425781 -62.945312 -4.566406 -65.019531 -4.148438 -65.15625 C -3.320312 -67.648438 -3.597656 -68.339844 -2.214844 -72.488281 C -1.105469 -76.226562 0.277344 -78.714844 1.523438 -81.898438 C 1.9375 -82.3125 1.796875 -84.109375 2.488281 -84.25 C 2.765625 -83.832031 2.214844 -83.558594 2.351562 -83.003906 C 2.628906 -82.3125 0.554688 -78.714844 0.828125 -78.855469 C -0.414062 -75.949219 -1.796875 -72.214844 -2.488281 -69.308594 Z M 6.226562 -61.5625 C 3.457031 -59.070312 1.660156 -57.6875 -1.660156 -57.550781 C -1.9375 -63.496094 -0.554688 -68.894531 1.660156 -74.289062 C 2.351562 -75.949219 2.214844 -76.226562 2.765625 -77.609375 C 3.320312 -79.40625 6.917969 -86.601562 8.160156 -87.984375 C 7.609375 -86.046875 4.011719 -79.546875 5.535156 -79.40625 C 6.085938 -79.683594 5.535156 -78.855469 5.949219 -78.992188 C 7.054688 -79.128906 7.332031 -79.128906 7.332031 -78.992188 C 8.300781 -78.578125 8.578125 -78.992188 8.578125 -80.238281 C 8.578125 -81.757812 10.097656 -83.832031 11.207031 -86.046875 C 13.695312 -91.027344 13.417969 -90.472656 14.109375 -90.75 C 15.632812 -91.441406 17.152344 -91.859375 18.398438 -91.996094 C 19.367188 -92.410156 20.199219 -91.027344 20.335938 -89.644531 C 20.335938 -89.503906 20.335938 -89.367188 20.472656 -89.367188 C 20.613281 -89.503906 20.335938 -91.304688 20.472656 -91.441406 C 20.613281 -91.582031 20.890625 -91.441406 20.890625 -91.164062 C 21.164062 -90.199219 21.582031 -86.046875 20.890625 -86.046875 C 20.613281 -86.046875 20.75 -85.769531 20.613281 -85.355469 C 19.921875 -82.867188 17.984375 -77.886719 16.738281 -76.226562 C 16.738281 -75.949219 16.460938 -76.085938 16.460938 -75.808594 C 16.460938 -75.535156 16.046875 -75.671875 16.1875 -75.394531 C 16.324219 -75.117188 16.324219 -75.117188 16.1875 -75.257812 C 16.1875 -75.394531 15.769531 -75.117188 15.769531 -74.84375 C 15.769531 -74.703125 15.769531 -74.566406 15.632812 -74.566406 C 15.492188 -74.425781 15.769531 -74.289062 15.492188 -74.148438 C 15.21875 -74.148438 14.941406 -73.734375 14.527344 -73.042969 C 12.3125 -69.167969 9.40625 -64.882812 6.226562 -61.5625 Z M 11.757812 -65.296875 C 11.34375 -64.882812 10.375 -63.359375 10.097656 -63.636719 C 10.097656 -63.773438 10.789062 -64.742188 10.929688 -65.019531 C 11.898438 -66.125 15.21875 -70.96875 15.355469 -71.523438 C 15.910156 -73.183594 16.046875 -72.765625 16.460938 -73.734375 C 17.015625 -74.703125 17.292969 -75.117188 17.707031 -76.226562 C 19.921875 -81.066406 22.273438 -85.355469 21.71875 -90.058594 C 21.027344 -91.441406 21.996094 -91.027344 22.132812 -90.058594 C 22.132812 -89.921875 22.273438 -89.644531 22.273438 -89.644531 C 22.550781 -89.644531 22.132812 -88.8125 22.273438 -88.8125 C 22.550781 -88.675781 22.273438 -88.121094 22.410156 -87.847656 C 22.550781 -87.570312 22.550781 -87.570312 22.550781 -87.429688 C 22.273438 -87.152344 22.550781 -86.601562 22.273438 -86.460938 C 22.132812 -86.324219 22.132812 -86.1875 22.273438 -85.632812 C 22.410156 -84.800781 21.996094 -84.800781 21.859375 -83.832031 C 20.335938 -78.300781 15.910156 -70.414062 11.757812 -65.296875 Z M 23.101562 -84.527344 C 23.101562 -84.109375 22.6875 -83.140625 22.6875 -82.589844 C 22.6875 -82.035156 22.410156 -82.171875 22.273438 -81.757812 C 22.273438 -80.929688 21.859375 -80.652344 21.71875 -79.820312 C 21.164062 -78.4375 20.75 -77.195312 20.058594 -75.949219 C 19.921875 -75.394531 19.367188 -74.84375 19.367188 -74.289062 C 19.230469 -73.875 18.398438 -73.042969 18.398438 -72.628906 C 17.847656 -71.382812 16.460938 -69.585938 15.910156 -68.339844 C 15.769531 -68.0625 12.3125 -62.667969 12.449219 -63.636719 C 12.449219 -63.636719 12.449219 -63.773438 12.589844 -63.914062 C 12.726562 -63.914062 12.589844 -64.742188 12.867188 -64.882812 C 13.140625 -65.019531 13.558594 -66.125 13.972656 -66.402344 C 14.109375 -66.402344 14.386719 -67.234375 14.527344 -67.234375 C 14.800781 -67.09375 15.21875 -67.925781 14.800781 -67.648438 C 15.769531 -69.722656 17.292969 -71.523438 18.261719 -73.597656 C 18.539062 -74.011719 19.089844 -75.535156 19.507812 -75.949219 C 19.644531 -76.085938 19.507812 -76.363281 19.644531 -76.5 C 19.921875 -76.640625 20.058594 -77.609375 20.335938 -77.886719 C 20.613281 -78.023438 20.472656 -78.4375 20.75 -78.578125 C 21.441406 -78.992188 21.027344 -79.683594 21.304688 -80.238281 C 21.441406 -80.238281 21.582031 -80.515625 21.582031 -80.652344 C 22.410156 -83.28125 23.242188 -86.046875 22.964844 -88.953125 C 23.242188 -88.261719 23.519531 -86.324219 23.242188 -86.046875 C 23.101562 -86.046875 23.242188 -84.664062 23.101562 -84.527344 Z M 23.101562 -84.527344 "/></g></g></g><g fill="#523d3d" fill-opacity="1"><g transform="translate(380.835677, 556.95525)"><g><path d="M 37.488281 -97.945312 C 36.9375 -96.835938 36.660156 -95.039062 35.96875 -94.070312 C 35.414062 -93.242188 33.753906 -89.230469 33.476562 -89.089844 C 33.203125 -88.953125 33.339844 -88.398438 33.0625 -88.261719 C 32.925781 -88.121094 32.925781 -87.707031 32.785156 -87.707031 C 32.234375 -87.570312 32.234375 -86.460938 31.816406 -86.046875 C 31.265625 -85.078125 30.574219 -83.832031 30.019531 -82.726562 C 29.742188 -82.035156 29.328125 -81.621094 29.191406 -81.066406 C 29.191406 -80.789062 28.914062 -80.789062 28.773438 -80.375 C 28.636719 -79.960938 28.496094 -80.097656 28.359375 -79.683594 C 28.222656 -79.269531 27.804688 -78.855469 27.804688 -78.4375 C 27.804688 -78.300781 26.976562 -77.054688 26.976562 -76.917969 C 26.699219 -76.5 26.285156 -76.226562 26.007812 -75.535156 C 25.039062 -73.597656 24.070312 -71.9375 22.964844 -70 C 22.550781 -69.445312 22.273438 -68.339844 21.71875 -68.0625 C 21.164062 -67.648438 22.964844 -71.105469 22.964844 -71.382812 C 23.378906 -72.214844 23.242188 -72.488281 23.65625 -73.183594 C 24.070312 -73.875 24.070312 -74.011719 24.761719 -75.535156 C 25.59375 -77.46875 25.871094 -78.578125 25.179688 -77.332031 C 24.902344 -76.777344 24.625 -76.5 24.484375 -76.085938 C 24.484375 -75.949219 23.378906 -74.289062 22.964844 -73.734375 C 22.550781 -72.90625 21.996094 -73.183594 22.6875 -74.148438 C 23.242188 -74.980469 22.964844 -75.257812 23.519531 -75.949219 C 24.625 -77.746094 26.007812 -80.238281 26.839844 -82.035156 C 28.636719 -84.941406 30.574219 -88.261719 32.234375 -91.441406 C 33.0625 -93.242188 35.554688 -96.976562 34.722656 -97.53125 C 33.894531 -95.730469 31.957031 -92.964844 31.125 -90.890625 C 30.851562 -89.78125 30.15625 -90.335938 30.15625 -89.089844 C 30.15625 -88.539062 29.191406 -87.429688 29.191406 -87.152344 C 29.328125 -87.015625 29.191406 -86.878906 29.191406 -86.878906 C 29.050781 -86.878906 28.914062 -86.601562 28.773438 -86.460938 C 28.636719 -85.910156 28.359375 -85.910156 28.359375 -85.492188 C 28.359375 -85.21875 27.945312 -85.21875 27.804688 -84.941406 C 27.804688 -84.664062 27.53125 -84.664062 27.667969 -84.941406 C 27.804688 -85.21875 27.667969 -85.492188 27.53125 -85.355469 C 27.53125 -85.21875 27.253906 -84.386719 27.53125 -84.386719 C 27.804688 -84.386719 27.53125 -84.109375 27.253906 -84.109375 C 26.976562 -84.109375 27.390625 -83.695312 26.976562 -83.695312 C 26.421875 -83.695312 26.839844 -82.3125 26.5625 -82.726562 L 26.5625 -83.140625 C 25.871094 -81.34375 24.625 -80.238281 23.933594 -78.4375 C 23.792969 -77.886719 23.378906 -78.160156 23.242188 -77.46875 C 22.6875 -75.949219 22.132812 -74.980469 20.890625 -73.183594 C 20.472656 -72.765625 20.335938 -73.042969 20.058594 -71.9375 C 19.921875 -71.246094 19.367188 -70.136719 18.953125 -69.585938 C 17.847656 -68.0625 18.539062 -68.894531 15.910156 -65.019531 C 14.527344 -62.945312 14.109375 -62.390625 13.972656 -62.253906 C 12.449219 -59.902344 8.300781 -55.199219 5.808594 -54.644531 C 5.117188 -55.890625 5.535156 -56.027344 5.671875 -61.144531 C 6.363281 -69.722656 7.332031 -74.84375 8.578125 -83.140625 C 9.683594 -90.058594 10.515625 -95.039062 12.449219 -100.851562 C 13.832031 -102.925781 13.140625 -104.167969 10.789062 -103.753906 C 10.515625 -103.617188 10.515625 -103.617188 10.515625 -103.753906 C 10.375 -104.585938 8.992188 -103.753906 8.578125 -103.617188 C 8.300781 -103.753906 7.746094 -103.0625 7.609375 -103.0625 C 5.949219 -102.234375 4.980469 -100.988281 4.84375 -99.191406 C 4.425781 -96.5625 3.042969 -93.792969 1.9375 -91.441406 C 0.828125 -88.539062 -0.277344 -85.492188 -1.246094 -82.449219 C -1.796875 -81.207031 -2.351562 -77.746094 -1.796875 -76.777344 C -1.382812 -75.808594 -1.246094 -76.777344 -0.96875 -77.332031 C -0.96875 -77.054688 -0.828125 -76.085938 -0.414062 -76.640625 C -0.414062 -76.777344 0.136719 -77.195312 0.414062 -77.195312 C 0.96875 -77.195312 0.96875 -77.054688 0.691406 -74.011719 C 0.136719 -70.414062 -0.691406 -61.144531 -0.691406 -56.996094 C -0.414062 -54.921875 -0.277344 -54.644531 1.105469 -53.8125 C 1.796875 -53.398438 2.351562 -52.847656 2.765625 -52.292969 C 4.289062 -50.21875 7.054688 -51.046875 9.40625 -50.769531 C 9.820312 -51.1875 11.066406 -51.601562 11.34375 -51.878906 C 11.898438 -52.570312 14.527344 -54.507812 15.078125 -55.199219 C 15.769531 -56.304688 17.292969 -57.550781 17.847656 -58.792969 C 17.847656 -58.933594 17.984375 -59.070312 18.953125 -60.59375 C 21.304688 -64.050781 23.378906 -67.371094 25.039062 -70.96875 C 25.039062 -71.246094 25.316406 -71.105469 25.316406 -71.246094 C 25.179688 -71.382812 26.007812 -72.765625 26.285156 -72.90625 C 26.5625 -73.320312 26.699219 -74.148438 27.113281 -74.84375 C 28.914062 -78.4375 31.402344 -83.417969 33.339844 -86.878906 C 34.585938 -89.089844 35 -90.75 36.246094 -92.964844 C 36.9375 -93.519531 38.875 -100.15625 37.488281 -97.945312 Z M 0.828125 -57.132812 C 0.554688 -57.132812 0.554688 -57.824219 0.828125 -57.550781 C 0.96875 -57.273438 0.96875 -57.132812 0.828125 -57.132812 Z M 1.796875 -55.199219 C 1.660156 -55.199219 1.660156 -55.335938 1.660156 -55.335938 C 1.523438 -55.613281 1.9375 -55.335938 1.796875 -55.199219 Z M 2.765625 -57.410156 C 2.488281 -56.71875 2.351562 -56.71875 2.351562 -57.550781 C 2.351562 -58.519531 2.90625 -58.378906 2.765625 -57.410156 Z M 2.351562 -59.070312 C 2.351562 -59.484375 2.628906 -59.484375 2.765625 -58.933594 C 2.765625 -58.242188 2.214844 -58.65625 2.351562 -59.070312 Z M 2.628906 -59.484375 C 2.074219 -59.625 2.488281 -61.976562 2.488281 -62.53125 C 2.765625 -62.53125 3.320312 -72.214844 3.320312 -66.816406 C 3.183594 -64.605469 3.042969 -61.5625 2.628906 -59.484375 Z M 3.183594 -69.308594 C 3.320312 -69.863281 3.457031 -71.105469 3.457031 -69.445312 C 3.597656 -68.476562 3.042969 -68.339844 3.183594 -69.308594 Z M 3.320312 -81.207031 C 3.320312 -81.34375 3.597656 -83.003906 3.734375 -83.140625 C 3.875 -83.140625 3.597656 -80.515625 3.320312 -81.207031 Z M 3.457031 -71.9375 C 3.457031 -71.796875 3.457031 -72.351562 3.457031 -72.214844 C 3.597656 -72.214844 3.597656 -72.074219 3.457031 -71.9375 Z M 3.597656 -70.828125 C 3.320312 -70.414062 3.457031 -71.246094 3.597656 -71.105469 C 3.875 -71.105469 3.734375 -70.96875 3.597656 -70.828125 Z M 3.734375 -93.933594 C 2.90625 -89.921875 1.9375 -88.675781 0.691406 -84.800781 C 0.554688 -84.386719 0.136719 -82.726562 0 -83.832031 C 0.828125 -86.738281 2.351562 -91.441406 3.597656 -94.210938 C 3.875 -94.484375 3.875 -94.484375 3.734375 -93.933594 Z M 4.011719 -83.695312 C 3.875 -83.28125 3.875 -84.527344 4.011719 -84.25 C 4.011719 -84.109375 4.011719 -83.832031 4.011719 -83.695312 Z M 4.289062 -76.5 C 4.148438 -76.363281 4.148438 -76.5 4.148438 -76.640625 C 4.148438 -76.917969 4.289062 -76.640625 4.289062 -76.5 Z M 16.1875 -63.082031 C 16.046875 -62.945312 15.910156 -62.945312 16.046875 -62.945312 C 16.738281 -64.050781 16.738281 -63.636719 16.1875 -63.082031 Z M 17.429688 -64.742188 C 17.292969 -64.742188 17.292969 -64.464844 17.015625 -64.191406 C 16.601562 -63.636719 16.601562 -63.914062 17.152344 -64.605469 C 17.984375 -65.851562 18.121094 -66.125 18.121094 -65.988281 C 18.121094 -65.710938 17.570312 -64.742188 17.429688 -64.742188 Z M 19.644531 -68.476562 C 19.367188 -69.03125 22.132812 -72.765625 21.859375 -72.628906 C 22.6875 -73.597656 22.550781 -72.765625 21.441406 -71.105469 C 20.472656 -69.722656 20.335938 -69.445312 19.644531 -68.476562 Z M 32.648438 -87.015625 C 32.511719 -86.738281 32.511719 -87.292969 32.648438 -87.152344 C 32.648438 -87.152344 32.648438 -87.015625 32.648438 -87.015625 Z M 27.53125 -85.632812 C 28.359375 -86.460938 28.773438 -87.847656 29.605469 -89.089844 C 30.433594 -90.75 31.265625 -92.132812 32.09375 -93.792969 C 33.894531 -96.5625 32.648438 -95.039062 35.554688 -99.464844 C 36.523438 -101.125 37.351562 -102.648438 37.074219 -102.785156 C 36.796875 -103.0625 36.523438 -102.785156 36.382812 -102.09375 C 36.246094 -101.542969 35.554688 -100.574219 35.414062 -100.15625 C 34.308594 -98.636719 33.0625 -96.144531 32.09375 -94.484375 C 30.988281 -92.6875 29.328125 -89.503906 28.222656 -87.570312 C 27.945312 -87.152344 27.804688 -86.460938 27.53125 -86.1875 C 27.390625 -86.1875 27.253906 -85.632812 27.53125 -85.632812 Z M 34.585938 -94.210938 C 34.445312 -92.824219 36.9375 -97.804688 37.074219 -97.945312 C 37.214844 -98.222656 37.351562 -98.636719 37.628906 -98.773438 C 37.628906 -98.636719 39.148438 -100.710938 38.457031 -100.433594 C 38.042969 -100.433594 38.042969 -100.574219 38.320312 -100.710938 C 38.457031 -100.851562 38.320312 -101.816406 37.90625 -101.679688 C 37.351562 -101.816406 37.074219 -100.019531 36.9375 -99.742188 C 36.523438 -98.222656 34.722656 -95.179688 34.585938 -94.210938 Z M 37.628906 -98.914062 C 37.351562 -98.773438 37.214844 -98.773438 37.351562 -98.773438 C 37.351562 -99.050781 38.183594 -99.191406 37.628906 -98.914062 Z M 37.628906 -98.914062 "/></g></g></g><g fill="#523d3d" fill-opacity="1"><g transform="translate(422.337427, 556.95525)"><g><path d="M -2.765625 -70.828125 C -2.765625 -70.828125 -2.765625 -70.96875 -2.488281 -71.105469 C -2.214844 -71.382812 -2.214844 -71.382812 -2.488281 -71.523438 C -2.90625 -71.9375 -3.183594 -70.277344 -2.90625 -70.277344 C -2.765625 -70.277344 -2.488281 -70.691406 -2.765625 -70.828125 Z M 54.644531 -81.480469 L 48.695312 -75.535156 C 48.558594 -75.394531 48.558594 -74.980469 48.003906 -74.703125 C 47.3125 -74.148438 46.757812 -72.488281 46.066406 -72.628906 C 46.066406 -73.042969 42.886719 -69.863281 43.023438 -69.863281 C 43.160156 -69.585938 42.332031 -68.753906 41.917969 -68.753906 C 41.640625 -68.753906 41.5 -68.617188 41.5 -68.476562 C 41.5 -68.339844 40.535156 -67.371094 40.535156 -67.234375 C 40.535156 -67.234375 40.394531 -67.09375 40.257812 -67.09375 C 40.117188 -67.234375 39.289062 -65.988281 39.011719 -66.125 C 38.734375 -66.125 38.875 -65.710938 38.597656 -65.710938 C 37.628906 -65.433594 36.523438 -64.464844 38.320312 -66.265625 C 40.808594 -68.476562 41.777344 -69.585938 41.777344 -69.863281 C 41.640625 -70.136719 41.917969 -70.554688 42.746094 -71.382812 C 43.714844 -72.351562 44.128906 -73.042969 43.714844 -73.042969 C 43.300781 -72.628906 42.195312 -71.382812 41.5 -70.828125 C 34.585938 -64.464844 28.359375 -59.625 20.058594 -56.164062 C 14.800781 -54.089844 7.886719 -52.152344 2.488281 -54.78125 C 0.277344 -55.613281 0.414062 -58.65625 0.136719 -60.59375 C 0 -65.296875 1.796875 -69.308594 3.183594 -73.734375 C 4.011719 -73.457031 6.085938 -72.488281 7.195312 -72.074219 C 13.417969 -70.96875 20.472656 -76.085938 23.933594 -81.207031 C 27.113281 -86.601562 33.894531 -97.667969 29.742188 -102.925781 C 27.945312 -104.585938 24.625 -105.828125 22.6875 -105.691406 C 21.441406 -105.414062 19.230469 -105.136719 17.847656 -104.722656 C 16.738281 -104.585938 16.046875 -104.167969 13.558594 -101.679688 C 9.546875 -97.804688 7.332031 -94.484375 4.566406 -90.199219 C 1.382812 -85.355469 -1.796875 -78.4375 -3.457031 -72.90625 C -5.535156 -66.542969 -5.671875 -60.316406 -2.074219 -55.199219 C -0.554688 -51.601562 4.84375 -49.800781 8.4375 -48.972656 C 10.789062 -49.109375 16.460938 -49.386719 18.8125 -50.21875 C 22.273438 -51.324219 28.914062 -54.507812 30.851562 -55.75 C 32.925781 -56.859375 37.074219 -59.902344 38.734375 -61.5625 C 38.734375 -61.699219 39.980469 -62.804688 40.949219 -63.496094 C 43.855469 -65.988281 45.375 -67.925781 47.589844 -70.554688 C 54.644531 -77.886719 57.964844 -83.140625 54.644531 -81.480469 Z M 3.597656 -80.515625 C 3.457031 -80.515625 3.320312 -80.238281 3.320312 -79.820312 C 3.183594 -78.855469 2.351562 -78.714844 2.214844 -77.609375 C 2.074219 -76.777344 2.074219 -76.777344 1.660156 -77.054688 C 1.246094 -77.332031 1.246094 -77.746094 1.523438 -77.746094 C 1.796875 -78.578125 3.734375 -82.589844 4.148438 -83.558594 C 4.566406 -84.386719 4.703125 -83.972656 5.117188 -84.800781 C 5.808594 -86.324219 6.085938 -86.738281 6.363281 -87.015625 C 6.640625 -87.152344 7.054688 -88.261719 7.054688 -87.429688 C 7.054688 -86.878906 5.394531 -84.109375 5.117188 -83.558594 C 5.117188 -83.28125 3.734375 -81.066406 3.734375 -80.652344 C 3.734375 -80.515625 3.597656 -80.515625 3.597656 -80.515625 Z M 26.699219 -93.933594 C 26.285156 -93.792969 26.839844 -94.347656 26.839844 -94.070312 C 26.839844 -93.933594 26.839844 -93.933594 26.699219 -93.933594 Z M 27.667969 -97.253906 C 27.804688 -97.113281 27.804688 -96.976562 27.667969 -96.976562 C 27.53125 -96.5625 27.53125 -97.390625 27.667969 -97.253906 Z M 26.285156 -95.871094 C 26.699219 -97.390625 26.976562 -99.464844 27.113281 -100.988281 C 27.390625 -99.328125 27.390625 -98.359375 26.699219 -96.421875 C 26.421875 -95.453125 26.007812 -95.039062 26.285156 -95.871094 Z M 26.007812 -92.410156 C 26.007812 -92.410156 25.871094 -91.996094 25.730469 -91.441406 C 25.179688 -90.335938 24.761719 -89.78125 24.902344 -90.613281 C 25.039062 -91.164062 25.871094 -92.550781 26.007812 -92.410156 Z M 19.089844 -98.359375 C 20.058594 -99.050781 24.625 -103.339844 25.453125 -101.816406 C 27.667969 -98.636719 21.304688 -87.570312 19.230469 -84.664062 C 16.738281 -80.652344 12.3125 -76.5 7.746094 -75.535156 C 6.085938 -75.257812 3.183594 -74.980469 4.148438 -76.917969 C 8.023438 -84.109375 12.449219 -93.242188 19.089844 -98.359375 Z M 10.375 -96.5625 C 10.515625 -96.699219 10.515625 -96.835938 10.652344 -96.835938 C 10.789062 -96.976562 10.375 -95.871094 10.375 -96.5625 Z M -0.96875 -76.917969 C -0.828125 -76.777344 -0.828125 -76.777344 -0.828125 -76.917969 C -0.96875 -77.195312 -0.277344 -79.546875 0.554688 -79.546875 C 0.691406 -79.40625 0.691406 -79.40625 0.691406 -79.820312 C 0.554688 -80.097656 0.554688 -80.238281 0.691406 -80.097656 C 0.828125 -80.097656 0.828125 -80.097656 0.828125 -80.375 C 0.828125 -80.652344 1.246094 -81.480469 1.523438 -82.035156 C 1.796875 -82.3125 1.523438 -83.003906 1.9375 -83.140625 C 2.351562 -83.28125 1.9375 -82.3125 1.9375 -82.171875 C 2.214844 -82.449219 2.90625 -83.140625 2.488281 -83.140625 C 2.214844 -83.28125 2.765625 -83.972656 2.765625 -84.386719 C 2.765625 -84.941406 3.183594 -85.078125 3.320312 -85.492188 C 3.457031 -85.769531 3.457031 -85.769531 3.457031 -85.355469 C 3.320312 -84.800781 3.597656 -84.800781 3.734375 -85.355469 C 3.875 -85.769531 4.148438 -85.632812 4.289062 -85.910156 C 4.289062 -86.046875 3.875 -86.046875 3.734375 -85.910156 C 3.734375 -85.769531 3.734375 -85.910156 3.734375 -86.1875 C 3.875 -86.738281 4.148438 -86.601562 4.289062 -87.152344 C 4.289062 -87.429688 4.425781 -87.707031 4.566406 -87.707031 C 4.703125 -87.707031 5.535156 -89.230469 5.671875 -89.230469 C 5.671875 -89.230469 5.808594 -89.367188 5.808594 -89.503906 C 5.671875 -90.199219 7.054688 -89.367188 6.503906 -90.058594 C 5.949219 -90.75 6.640625 -91.164062 6.503906 -90.472656 C 6.363281 -90.335938 6.363281 -90.335938 6.640625 -90.472656 C 7.195312 -90.890625 6.226562 -91.304688 6.917969 -91.71875 C 7.609375 -92.273438 8.160156 -93.792969 8.855469 -94.210938 C 8.992188 -94.210938 9.128906 -94.210938 8.992188 -94.347656 C 8.855469 -94.761719 9.820312 -95.871094 10.238281 -95.730469 C 10.375 -95.59375 11.480469 -96.835938 11.480469 -96.421875 C 11.480469 -96.144531 10.789062 -96.007812 10.789062 -95.59375 C 10.789062 -95.316406 10.515625 -95.453125 10.515625 -95.179688 C 10.515625 -94.761719 9.960938 -94.484375 9.960938 -94.210938 C 9.960938 -94.210938 9.820312 -94.070312 9.546875 -94.070312 C 9.269531 -94.070312 9.128906 -93.933594 9.269531 -93.65625 C 9.269531 -93.242188 7.609375 -91.027344 7.46875 -90.613281 C 7.332031 -89.921875 6.917969 -90.613281 7.054688 -90.058594 C 7.054688 -89.644531 6.085938 -88.261719 5.808594 -88.539062 C 5.671875 -88.953125 5.257812 -88.261719 5.671875 -88.261719 C 5.949219 -88.121094 5.949219 -87.984375 5.535156 -87.570312 C 4.84375 -85.910156 3.734375 -84.386719 2.765625 -82.3125 C 2.488281 -81.898438 0.277344 -76.5 0.136719 -77.746094 C -0.136719 -78.714844 -0.136719 -76.917969 -0.414062 -76.640625 C -0.96875 -75.535156 -1.382812 -76.777344 -0.96875 -76.917969 Z M -0.136719 -76.226562 C 0 -76.085938 -0.828125 -74.566406 -0.691406 -75.394531 C -0.691406 -75.535156 -0.136719 -76.363281 -0.136719 -76.226562 Z M -3.875 -67.648438 C -3.875 -68.0625 -3.875 -68.203125 -3.875 -68.0625 C -3.734375 -67.648438 -4.011719 -66.542969 -3.875 -67.648438 Z M -3.875 -62.253906 C -4.148438 -62.804688 -4.148438 -65.433594 -4.011719 -65.851562 C -3.734375 -66.679688 -3.875 -64.742188 -3.457031 -67.234375 C -3.457031 -68.203125 -3.457031 -68.476562 -3.597656 -68.476562 C -4.289062 -68.0625 -2.351562 -74.980469 -1.105469 -76.085938 C -0.96875 -76.085938 -1.105469 -74.84375 -1.246094 -74.566406 C -1.523438 -74.289062 -1.9375 -74.84375 -1.796875 -74.148438 C -1.523438 -73.597656 -2.074219 -74.011719 -1.9375 -73.320312 C -1.9375 -73.183594 -1.9375 -73.042969 -2.074219 -73.042969 C -2.214844 -73.183594 -2.351562 -72.90625 -2.214844 -72.628906 C -2.214844 -72.488281 -1.382812 -73.183594 -1.382812 -73.597656 C -1.382812 -73.597656 -1.246094 -73.734375 -1.105469 -73.875 C -0.828125 -74.148438 -0.828125 -73.875 -1.382812 -72.488281 C -2.488281 -69.863281 -3.183594 -65.019531 -3.597656 -63.496094 C -3.734375 -63.914062 -3.734375 -63.082031 -3.597656 -63.082031 C -3.320312 -62.945312 -3.597656 -61.421875 -3.875 -62.253906 Z M -2.488281 -59.902344 C -2.628906 -60.316406 -2.628906 -61.421875 -2.488281 -61.421875 C -2.074219 -61.421875 -2.214844 -59.347656 -2.488281 -59.902344 Z M -0.691406 -70.136719 C -0.828125 -70.136719 -0.96875 -70 -0.96875 -69.585938 C -0.96875 -68.894531 -1.246094 -68.894531 -1.105469 -68.339844 C -0.828125 -67.925781 -0.96875 -66.957031 -1.382812 -67.648438 C -1.382812 -68.0625 -1.246094 -66.679688 -1.382812 -66.957031 C -1.660156 -67.09375 -1.523438 -65.433594 -1.796875 -65.710938 C -1.9375 -65.710938 -2.074219 -65.433594 -1.796875 -65.15625 C -1.660156 -65.019531 -1.796875 -64.882812 -1.9375 -64.605469 C -2.214844 -64.328125 -2.214844 -63.914062 -2.351562 -63.082031 C -2.351562 -61.699219 -2.628906 -61.421875 -2.628906 -62.667969 C -2.765625 -65.15625 -1.9375 -68.894531 -0.277344 -73.320312 C 0.554688 -74.84375 0.136719 -75.949219 1.105469 -76.640625 C 1.246094 -76.640625 1.382812 -76.363281 1.382812 -76.226562 C 1.523438 -75.535156 0.691406 -75.949219 0.828125 -75.535156 C 0.96875 -74.566406 -0.136719 -72.351562 -0.277344 -71.246094 C -0.554688 -70.691406 -0.277344 -70 -0.691406 -70.136719 Z M 43.855469 -68.476562 C 43.578125 -68.203125 43.300781 -67.925781 43.300781 -67.925781 C 43.160156 -67.925781 43.300781 -68.203125 43.578125 -68.476562 C 44.269531 -69.03125 44.40625 -69.03125 43.855469 -68.476562 Z M 45.238281 -69.722656 C 45.238281 -69.722656 45.097656 -69.585938 45.097656 -69.585938 C 44.546875 -69.585938 45.375 -70 45.238281 -69.722656 Z M 46.066406 -70.554688 C 45.375 -69.863281 45.238281 -70 45.929688 -70.554688 C 46.621094 -71.246094 46.898438 -71.246094 46.066406 -70.554688 Z M 7.195312 -91.164062 C 7.46875 -91.164062 7.886719 -91.859375 7.746094 -91.996094 C 7.746094 -92.132812 6.917969 -91.027344 7.195312 -91.164062 Z M 9.820312 -94.761719 C 9.820312 -94.902344 9.960938 -95.179688 10.097656 -95.179688 C 10.238281 -95.039062 10.238281 -95.59375 10.097656 -95.59375 C 9.820312 -95.730469 9.40625 -94.070312 9.820312 -94.761719 Z M 9.820312 -94.761719 "/></g></g></g><g fill="#523d3d" fill-opacity="1"><g transform="translate(224.6203, 378.227529)"><g><path d="M 132.6875 -108.625 C 132.6875 -105.601562 131.453125 -102.101562 128.984375 -98.125 C 126.929688 -94.425781 124.632812 -91.890625 122.09375 -90.515625 C 119.550781 -89.140625 118.28125 -89.273438 118.28125 -90.921875 C 118.28125 -91.066406 119.035156 -91.890625 120.546875 -93.390625 C 125.078125 -97.648438 127.34375 -101.148438 127.34375 -103.890625 C 127.34375 -109.785156 121.515625 -112.734375 109.859375 -112.734375 C 104.921875 -112.734375 98.40625 -111.804688 90.3125 -109.953125 C 82.21875 -108.097656 74.398438 -105.117188 66.859375 -101.015625 C 58.078125 -96.210938 53.6875 -92.023438 53.6875 -88.453125 C 53.6875 -85.578125 56.363281 -82.835938 61.71875 -80.234375 C 64.59375 -78.859375 70.316406 -76.554688 78.890625 -73.328125 C 87.460938 -70.109375 94.390625 -67.296875 99.671875 -64.890625 C 104.953125 -62.492188 109.957031 -59.101562 114.6875 -54.71875 C 119.414062 -50.332031 121.78125 -45.460938 121.78125 -40.109375 C 121.78125 -34.765625 118.628906 -28.9375 112.328125 -22.625 C 102.722656 -13.4375 90.238281 -5.789062 74.875 0.3125 C 59.519531 6.414062 46.359375 9.46875 35.390625 9.46875 C 13.710938 9.46875 2.875 3.363281 2.875 -8.84375 C 2.875 -21.050781 9.523438 -31.40625 22.828125 -39.90625 C 33.804688 -47.445312 45.328125 -51.21875 57.390625 -51.21875 C 60.273438 -51.21875 61.578125 -50.738281 61.296875 -49.78125 C 61.023438 -48.820312 58.96875 -48.304688 55.125 -48.234375 C 51.289062 -48.171875 46.351562 -46.867188 40.3125 -44.328125 C 34.28125 -41.796875 28.660156 -38.128906 23.453125 -33.328125 C 16.597656 -27.148438 13.171875 -20.976562 13.171875 -14.8125 C 13.171875 -10.96875 15.019531 -7.535156 18.71875 -4.515625 C 22.425781 -1.503906 29.488281 0 39.90625 0 C 50.332031 0 60.617188 -1.644531 70.765625 -4.9375 C 92.710938 -12.207031 106.425781 -20.160156 111.90625 -28.796875 C 114.101562 -31.953125 115.203125 -34.628906 115.203125 -36.828125 C 115.203125 -43.128906 111.363281 -48.066406 103.6875 -51.640625 C 94.769531 -55.753906 82.285156 -60.484375 66.234375 -65.828125 C 60.066406 -67.890625 54.820312 -70.597656 50.5 -73.953125 C 46.1875 -77.316406 44.03125 -81.363281 44.03125 -86.09375 C 44.03125 -90.820312 46.597656 -95.484375 51.734375 -100.078125 C 56.878906 -104.671875 63.085938 -108.34375 70.359375 -111.09375 C 85.992188 -116.988281 99.226562 -119.9375 110.0625 -119.9375 C 125.144531 -119.9375 132.6875 -116.164062 132.6875 -108.625 Z M 132.6875 -108.625 "/></g></g></g><g fill="#523d3d" fill-opacity="1"><g transform="translate(346.401047, 378.227529)"><g><path d="M 104.921875 -28.796875 C 102.859375 -25.097656 99.148438 -20.367188 93.796875 -14.609375 C 88.453125 -8.847656 83.65625 -4.390625 79.40625 -1.234375 C 73.914062 2.742188 67.953125 4.734375 61.515625 4.734375 C 60.273438 4.734375 58.660156 4.148438 56.671875 2.984375 C 54.679688 1.816406 53.34375 0.140625 52.65625 -2.046875 C 51.976562 -4.242188 51.640625 -6.375 51.640625 -8.4375 C 51.640625 -15.5625 53.007812 -22.625 55.75 -29.625 C 55.332031 -29.351562 53.441406 -26.4375 50.078125 -20.875 C 46.722656 -15.320312 42.613281 -10.078125 37.75 -5.140625 C 32.882812 -0.203125 27.984375 2.265625 23.046875 2.265625 C 20.710938 2.265625 18.035156 1.644531 15.015625 0.40625 C 9.523438 -2.0625 6.78125 -6.585938 6.78125 -13.171875 C 6.78125 -21.253906 9.554688 -29.582031 15.109375 -38.15625 C 20.671875 -46.726562 24.207031 -51.289062 25.71875 -51.84375 C 27.769531 -52.382812 29.722656 -52.65625 31.578125 -52.65625 C 33.429688 -52.65625 35.316406 -52.28125 37.234375 -51.53125 C 39.148438 -50.78125 38.875 -49.515625 36.40625 -47.734375 C 26.945312 -39.085938 20.226562 -29.484375 16.25 -18.921875 C 14.738281 -14.804688 13.984375 -11.34375 13.984375 -8.53125 C 13.984375 -5.71875 14.703125 -3.898438 16.140625 -3.078125 C 17.585938 -2.253906 18.992188 -1.84375 20.359375 -1.84375 C 23.648438 -1.84375 28.140625 -4.140625 33.828125 -8.734375 C 39.523438 -13.335938 47.378906 -22.90625 57.390625 -37.4375 C 58.765625 -39.5 61.164062 -43.507812 64.59375 -49.46875 C 68.019531 -55.4375 70.078125 -58.96875 70.765625 -60.0625 C 72.960938 -60.0625 75.535156 -59.546875 78.484375 -58.515625 C 81.429688 -57.492188 82.425781 -56.160156 81.46875 -54.515625 C 74.882812 -43.546875 70.253906 -35.453125 67.578125 -30.234375 C 64.898438 -25.023438 63.082031 -18.925781 62.125 -11.9375 C 61.988281 -10.695312 61.921875 -9.113281 61.921875 -7.1875 C 61.921875 -5.269531 62.46875 -3.695312 63.5625 -2.46875 C 65.625 -0.269531 68.472656 -0.164062 72.109375 -2.15625 C 75.742188 -4.144531 80.710938 -7.984375 87.015625 -13.671875 C 93.328125 -19.367188 98.40625 -24.960938 102.25 -30.453125 C 102.789062 -31.128906 103.4375 -31.296875 104.1875 -30.953125 C 104.945312 -30.617188 105.328125 -30.28125 105.328125 -29.9375 C 105.328125 -29.59375 105.191406 -29.210938 104.921875 -28.796875 Z M 104.921875 -28.796875 "/></g></g></g><g fill="#523d3d" fill-opacity="1"><g transform="translate(437.942326, 378.227529)"><g><path d="M 27.984375 -56.984375 C 31.410156 -56.984375 33.46875 -55.882812 34.15625 -53.6875 C 34.425781 -52.457031 34.25 -51.257812 33.625 -50.09375 C 33.007812 -48.925781 32.566406 -48 32.296875 -47.3125 C 32.023438 -46.625 31.820312 -46.078125 31.6875 -45.671875 C 31 -44.296875 30.3125 -42.992188 29.625 -41.765625 C 21.800781 -26.128906 17.6875 -16.1875 17.28125 -11.9375 C 17.144531 -10.695312 17.078125 -9.113281 17.078125 -7.1875 C 17.078125 -5.269531 17.625 -3.695312 18.71875 -2.46875 C 20.632812 -0.269531 23.375 -0.128906 26.9375 -2.046875 C 30.507812 -3.972656 35.484375 -7.816406 41.859375 -13.578125 C 48.242188 -19.335938 53.421875 -24.960938 57.390625 -30.453125 C 57.941406 -31.128906 58.5625 -31.296875 59.25 -30.953125 C 59.9375 -30.617188 60.28125 -30.28125 60.28125 -29.9375 C 60.28125 -29.59375 60.140625 -29.210938 59.859375 -28.796875 C 57.804688 -25.097656 54.101562 -20.367188 48.75 -14.609375 C 39.976562 -5.140625 32.644531 0.6875 26.75 2.875 C 23.3125 4.113281 20.429688 4.734375 18.109375 4.734375 C 12.617188 4.734375 8.984375 2.128906 7.203125 -3.078125 C 6.921875 -4.046875 6.78125 -5.210938 6.78125 -6.578125 C 6.78125 -11.378906 8.976562 -18.648438 13.375 -28.390625 C 12.6875 -26.878906 10.007812 -23.453125 5.34375 -18.109375 C 4.113281 -16.734375 3.15625 -16.734375 2.46875 -18.109375 C 2.332031 -18.378906 2.265625 -18.753906 2.265625 -19.234375 C 2.265625 -19.710938 2.535156 -20.296875 3.078125 -20.984375 C 9.804688 -29.347656 15.085938 -36.410156 18.921875 -42.171875 C 18.648438 -42.859375 18.789062 -43.75 19.34375 -44.84375 C 22.082031 -52.519531 24.476562 -56.566406 26.53125 -56.984375 C 26.945312 -56.984375 27.429688 -56.984375 27.984375 -56.984375 Z M 44.234375 -84.34375 L 42.578125 -77.765625 C 42.578125 -76.523438 41.6875 -74.535156 39.90625 -71.796875 C 38.125 -69.054688 36.753906 -67.6875 35.796875 -67.6875 C 29.898438 -67.6875 26.953125 -69.125 26.953125 -72 C 26.953125 -72.550781 29.898438 -75.085938 35.796875 -79.609375 L 39.296875 -82.28125 C 41.484375 -84.207031 42.851562 -85.171875 43.40625 -85.171875 C 43.957031 -85.171875 44.234375 -84.894531 44.234375 -84.34375 Z M 44.234375 -84.34375 "/></g></g></g><path fill="#ea728c" d="M 599.476562 90.890625 C 606.59375 112.441406 603.464844 138.503906 591.105469 160.585938 C 568.304688 201.332031 486.957031 227.722656 437.820312 235.527344 C 435.859375 235.839844 433.820312 235.699219 431.921875 235.109375 C 430.019531 234.519531 428.253906 233.496094 426.796875 232.128906 C 408.242188 214.699219 385.441406 188.503906 368.121094 160.851562 C 365.917969 157.324219 356.558594 158.628906 354.546875 155.070312 C 351.464844 149.605469 355.875 139.265625 353.371094 133.820312 C 345.3125 116.21875 340.695312 98.980469 341.976562 83.941406 C 343.066406 71.144531 346.699219 58.839844 352.355469 48.019531 C 364.875 52.457031 379.882812 66.515625 379.882812 66.515625 L 389.078125 94.148438 C 389.078125 94.148438 379.839844 128.257812 382.875 133.820312 C 396.722656 159.273438 418.433594 187.167969 440.085938 208.480469 C 491.34375 199.109375 553.621094 173.808594 568.210938 147.738281 C 577.035156 131.980469 579.40625 113.808594 574.5625 99.152344 C 571.414062 89.648438 565.355469 82.46875 557.476562 78.9375 C 556.226562 78.367188 554.890625 77.875 553.523438 77.457031 C 532.023438 70.839844 502.257812 83.21875 484.273438 106.242188 C 480.953125 110.496094 475.246094 112.289062 470.089844 110.703125 C 464.925781 109.117188 461.207031 104.429688 460.847656 99.035156 C 458.875 69.871094 441.167969 42.890625 419.664062 36.273438 C 418.308594 35.855469 416.925781 35.523438 415.578125 35.277344 C 407.085938 33.769531 398.042969 36.300781 390.117188 42.398438 C 387.917969 44.085938 385.859375 45.996094 383.933594 48.101562 L 383.925781 48.101562 C 363 50.125 360.183594 41.34375 368.121094 26.742188 C 370.039062 24.890625 372.046875 23.164062 374.125 21.558594 C 387.972656 10.90625 404.328125 6.585938 420.148438 9.398438 C 422.578125 9.835938 425.023438 10.421875 427.410156 11.152344 C 442.511719 15.804688 456.203125 26.183594 466.980469 41.183594 C 473.53125 50.285156 478.652344 60.570312 482.121094 71.484375 C 491.097656 64.402344 501.109375 58.765625 511.632812 54.910156 C 528.960938 48.570312 546.109375 47.675781 561.230469 52.328125 C 563.613281 53.070312 565.960938 53.953125 568.199219 54.949219 C 582.875 61.527344 593.984375 74.296875 599.476562 90.890625 Z M 599.476562 90.890625 " fill-opacity="1" fill-rule="nonzero"/><path fill="#f48ca7" d="M 394.269531 83.941406 C 395.558594 98.980469 390.933594 116.21875 382.875 133.820312 C 379.839844 128.257812 377.1875 122.808594 374.996094 117.570312 C 370 105.644531 368.121094 94.699219 368.121094 86.171875 C 368.121094 71.285156 361.515625 57.625 352.355469 48.019531 C 350.386719 45.949219 348.300781 44.070312 346.128906 42.398438 C 338.203125 36.300781 329.160156 33.769531 320.664062 35.277344 C 319.320312 35.523438 317.933594 35.855469 316.578125 36.273438 C 295.078125 42.890625 277.371094 69.871094 275.398438 99.035156 C 275.039062 104.429688 271.320312 109.117188 266.15625 110.703125 C 260.996094 112.289062 255.289062 110.496094 251.972656 106.242188 C 233.988281 83.21875 204.222656 70.839844 182.722656 77.457031 C 181.355469 77.875 180.019531 78.367188 178.765625 78.9375 C 170.890625 82.46875 164.832031 89.648438 161.683594 99.152344 C 156.839844 113.808594 159.210938 131.980469 168.035156 147.738281 C 182.625 173.808594 244.902344 199.109375 296.160156 208.480469 C 317.800781 187.167969 339.519531 159.273438 353.371094 133.820312 C 357.503906 142.8125 362.53125 151.90625 368.121094 160.851562 C 350.800781 188.515625 328.003906 214.707031 309.449219 232.128906 C 307.992188 233.496094 306.226562 234.519531 304.320312 235.109375 C 302.425781 235.699219 300.386719 235.839844 298.425781 235.527344 C 249.289062 227.722656 167.941406 201.332031 145.140625 160.585938 C 132.78125 138.503906 129.652344 112.441406 136.769531 90.890625 C 142.257812 74.296875 153.371094 61.527344 168.046875 54.949219 C 170.28125 53.953125 172.632812 53.070312 175.011719 52.328125 C 190.132812 47.675781 207.285156 48.570312 224.613281 54.910156 C 235.136719 58.765625 245.148438 64.402344 254.125 71.484375 C 257.59375 60.570312 262.714844 50.285156 269.265625 41.183594 C 280.042969 26.183594 293.734375 15.804688 308.835938 11.152344 C 311.222656 10.421875 313.667969 9.835938 316.097656 9.398438 C 331.917969 6.585938 348.269531 10.90625 362.121094 21.558594 C 364.207031 23.164062 366.207031 24.890625 368.121094 26.742188 C 374.378906 32.769531 379.726562 40.023438 383.925781 48.101562 C 389.566406 58.90625 393.179688 71.183594 394.269531 83.941406 Z M 394.269531 83.941406 " fill-opacity="1" fill-rule="nonzero"/></svg>