<svg xmlns="http://www.w3.org/2000/svg" xmlns:xlink="http://www.w3.org/1999/xlink" fill="none" version="1.1" width="200" height="200" viewBox="0 0 200 200"><defs><clipPath id="master_svg0_167_9455"><rect x="0" y="0" width="200" height="200" rx="0"/></clipPath><linearGradient x1="0.5" y1="0" x2="0.5" y2="1" id="master_svg1_167_5255"><stop offset="0%" stop-color="#01DCFC" stop-opacity="1"/><stop offset="97.14285731315613%" stop-color="#0178F6" stop-opacity="1"/></linearGradient></defs><g style="mix-blend-mode:passthrough" clip-path="url(#master_svg0_167_9455)"><rect x="0" y="0" width="200" height="200" rx="0" fill="#000000" fill-opacity="1"/><g><path d="M124.3757890625,25.748291015625L100.0004890625,50.123291015625L75.6255890625,25.748291015625C45.472689062499995,35.917591015625,23.7587890625,64.42609101562499,23.7587890625,98.009891015625C23.7587890625,140.118291015625,57.8918890625,174.251291015625,100.0004890625,174.251291015625C142.1087890625,174.251291015625,176.2417890625,140.118291015625,176.2417890625,98.009891015625C176.2417890625,64.42609101562499,154.5277890625,35.917591015625,124.3757890625,25.748291015625ZM128.0117890625,134.22829101562502C112.5392890625,149.701291015625,87.45798906249999,149.701291015625,71.98538906249999,134.22829101562502C56.5127890625,118.755891015625,56.5127890625,93.674591015625,71.98538906249999,78.201891015625L99.9967890625,50.190491015625L128.0077890625,78.201891015625C143.48078906249998,93.674591015625,143.48078906249998,118.755891015625,128.0077890625,134.22829101562502L128.0117890625,134.22829101562502Z" fill="url(#master_svg1_167_5255)" fill-opacity="1"/></g></g></svg>