<svg width="24" height="24" viewBox="0 0 24 24" fill="none" xmlns="http://www.w3.org/2000/svg">
<g id="&#233;&#161;&#185;&#231;&#155;&#174;" clip-path="url(#clip0_2_327)">
<path id="Vector" d="M3.27273 0H20.7273C21.5953 0 22.4277 0.344804 23.0414 0.95856C23.6552 1.57232 24 2.40475 24 3.27273V20.7273C24 21.5953 23.6552 22.4277 23.0414 23.0414C22.4277 23.6552 21.5953 24 20.7273 24H3.27273C2.40475 24 1.57232 23.6552 0.95856 23.0414C0.344804 22.4277 0 21.5953 0 20.7273L0 3.27273C0 2.40475 0.344804 1.57232 0.95856 0.95856C1.57232 0.344804 2.40475 0 3.27273 0V0ZM14.9149 18.5022C14.955 18.5045 14.9951 18.4983 15.0325 18.4841C15.07 18.4698 15.1041 18.4477 15.1325 18.4194C15.1608 18.391 15.1829 18.357 15.1971 18.3195C15.2114 18.282 15.2176 18.2419 15.2153 18.2018V13.6509C15.2314 13.06 15.0175 12.4859 14.6186 12.0496C14.2198 11.6132 13.6671 11.3488 13.0771 11.312H10.8225C10.2328 11.3486 9.68044 11.6131 9.28222 12.0496C8.884 12.486 8.67117 13.0603 8.68873 13.6509V18.2018C8.6864 18.2419 8.69258 18.282 8.70685 18.3195C8.72112 18.357 8.74317 18.391 8.77154 18.4194C8.79991 18.4477 8.83396 18.4698 8.87145 18.4841C8.90895 18.4983 8.94904 18.5045 8.98909 18.5022H14.9149ZM7.39855 18.5022C7.43833 18.5045 7.47814 18.4982 7.51531 18.4839C7.55248 18.4695 7.58615 18.4474 7.61405 18.4189C7.64195 18.3905 7.66344 18.3564 7.67707 18.3189C7.6907 18.2815 7.69617 18.2415 7.69309 18.2018V13.4611C7.70686 13.4193 7.70874 13.3746 7.69853 13.3318C7.68832 13.289 7.66642 13.2499 7.63527 13.2189C7.61021 13.1878 7.57784 13.1633 7.54105 13.1477C7.50425 13.1321 7.46417 13.1258 7.42436 13.1295H6.508C6.03804 13.1336 5.58843 13.3218 5.2556 13.6536C4.92277 13.9854 4.73323 14.4344 4.72764 14.9044V18.1916C4.72548 18.2312 4.73161 18.2708 4.74562 18.3078C4.75963 18.3449 4.78123 18.3786 4.80902 18.4068C4.83681 18.4351 4.87019 18.4572 4.90702 18.4718C4.94385 18.4864 4.98332 18.4932 5.02291 18.4916H7.39855V18.5025V18.5022ZM18.8764 18.5022C18.9164 18.5045 18.9564 18.4982 18.9939 18.4839C19.0313 18.4696 19.0653 18.4476 19.0937 18.4192C19.122 18.3909 19.144 18.3568 19.1583 18.3194C19.1725 18.2819 19.1787 18.2418 19.1764 18.2018V14.9044C19.1778 14.6692 19.1328 14.436 19.0441 14.2182C18.9554 14.0004 18.8246 13.8022 18.6593 13.6349C18.494 13.4676 18.2973 13.3345 18.0806 13.2433C17.8638 13.152 17.6312 13.1043 17.396 13.1029H16.4796C16.4164 13.1029 16.3004 13.1295 16.2687 13.1927C16.2329 13.2686 16.2132 13.351 16.2109 13.4349V18.1756C16.2078 18.2154 16.2133 18.2554 16.227 18.2928C16.2406 18.3303 16.2621 18.3644 16.2901 18.3929C16.318 18.4213 16.3517 18.4435 16.3889 18.4578C16.4262 18.4721 16.466 18.4784 16.5058 18.476L18.8764 18.5022V18.5022ZM17.1273 12.6604C17.5453 12.6666 17.9557 12.5484 18.3063 12.3208C18.6569 12.0931 18.9319 11.7663 19.0962 11.3819C19.2605 10.9975 19.3068 10.5729 19.2291 10.1622C19.1514 9.75139 18.9533 9.37302 18.6599 9.07519C18.3666 8.77736 17.9913 8.57354 17.5817 8.48964C17.1722 8.40575 16.7469 8.44559 16.3601 8.60408C15.9733 8.76258 15.6423 9.03257 15.4094 9.3797C15.1765 9.72683 15.052 10.1354 15.052 10.5535C15.0486 10.8285 15.0997 11.1014 15.2024 11.3565C15.3051 11.6116 15.4574 11.8439 15.6504 12.0398C15.8434 12.2357 16.0734 12.3914 16.3269 12.4979C16.5805 12.6045 16.8526 12.6597 17.1276 12.6604H17.1273ZM6.83491 12.6604C7.11012 12.6604 7.38259 12.6057 7.63646 12.4994C7.89033 12.3932 8.12052 12.2375 8.31365 12.0414C8.50677 11.8453 8.65897 11.6128 8.76138 11.3573C8.8638 11.1019 8.91438 10.8286 8.91018 10.5535C8.91382 10.2786 8.86282 10.0057 8.76016 9.75075C8.65749 9.49575 8.50519 9.26369 8.3121 9.06803C8.11902 8.87237 7.88899 8.71702 7.63538 8.61098C7.38177 8.50495 7.10962 8.45035 6.83473 8.45035C6.55984 8.45035 6.28769 8.50495 6.03407 8.61098C5.78046 8.71702 5.55043 8.87237 5.35735 9.06803C5.16426 9.26369 5.01197 9.49575 4.9093 9.75075C4.80663 10.0057 4.75563 10.2786 4.75927 10.5535C4.75513 10.8287 4.80575 11.1019 4.9082 11.3574C5.01066 11.6128 5.16289 11.8453 5.35604 12.0414C5.5492 12.2375 5.77942 12.3932 6.03331 12.4994C6.2872 12.6057 6.55968 12.6604 6.83491 12.6604V12.6604ZM11.9495 10.8276C12.3026 10.8269 12.6522 10.7562 12.9779 10.6198C13.3037 10.4833 13.5992 10.2837 13.8475 10.0324C14.0957 9.78122 14.2918 9.48335 14.4244 9.15599C14.557 8.82863 14.6235 8.47826 14.62 8.12509C14.62 7.41682 14.3386 6.73755 13.8378 6.23673C13.337 5.73591 12.6577 5.45455 11.9495 5.45455C11.2412 5.45455 10.5619 5.73591 10.0611 6.23673C9.56027 6.73755 9.27891 7.41682 9.27891 8.12509C9.27613 8.47806 9.34308 8.82811 9.47591 9.15514C9.60874 9.48218 9.80485 9.77976 10.053 10.0308C10.3011 10.2819 10.5963 10.4815 10.9218 10.6182C11.2472 10.7548 11.5965 10.8259 11.9495 10.8273V10.8276Z" fill="#FFD25F"/>
</g>
<defs>
<clipPath id="clip0_2_327">
<rect width="24" height="24" fill="white"/>
</clipPath>
</defs>
</svg>
