<?xml version="1.0" standalone="no"?><!DOCTYPE svg PUBLIC "-//W3C//DTD SVG 1.1//EN" "http://www.w3.org/Graphics/SVG/1.1/DTD/svg11.dtd"><svg t="1664896958151" class="icon" viewBox="0 0 1024 1024" version="1.1" xmlns="http://www.w3.org/2000/svg" p-id="19259" xmlns:xlink="http://www.w3.org/1999/xlink" width="200" height="200"><path d="M112.826182 680.680727a31.030303 31.030303 0 0 1 42.449454-11.170909L512 877.59903l356.724364-208.089212a31.030303 31.030303 0 1 1 31.278545 53.620364l-372.363636 217.212121a31.030303 31.030303 0 0 1-31.278546 0l-372.363636-217.212121a31.030303 31.030303 0 0 1-11.170909-42.449455z" fill="#303133" p-id="19260"></path><path d="M112.826182 494.498909a31.030303 31.030303 0 0 1 42.449454-11.170909L512 691.417212l356.724364-208.089212a31.030303 31.030303 0 1 1 31.278545 53.620364l-372.363636 217.212121a31.030303 31.030303 0 0 1-31.278546 0l-372.363636-217.212121a31.030303 31.030303 0 0 1-11.170909-42.449455z" fill="#303133" p-id="19261"></path><path d="M496.360727 79.934061a31.030303 31.030303 0 0 1 31.278546 0l372.363636 217.212121a31.030303 31.030303 0 0 1 0 53.620363l-372.363636 217.212122a31.030303 31.030303 0 0 1-31.278546 0l-372.363636-217.212122a31.030303 31.030303 0 0 1 0-53.620363l372.363636-217.212121zM201.231515 323.956364L512 505.235394l310.768485-181.27903L512 142.677333 201.231515 323.956364z" fill="#303133" p-id="19262"></path></svg>