<?xml version="1.0" standalone="no"?><!DOCTYPE svg PUBLIC "-//W3C//DTD SVG 1.1//EN" "http://www.w3.org/Graphics/SVG/1.1/DTD/svg11.dtd"><svg t="1664896991131" class="icon" viewBox="0 0 1024 1024" version="1.1" xmlns="http://www.w3.org/2000/svg" p-id="20163" xmlns:xlink="http://www.w3.org/1999/xlink" width="200" height="200"><path d="M298.666667 810.666667a170.666667 170.666667 0 0 1 0-341.333334h426.666666a85.333333 85.333333 0 0 0 0-170.666666H256v85.333333a21.333333 21.333333 0 0 1-36.266667 14.933333l-128-128a21.76 21.76 0 0 1 0-30.293333l128-128A21.333333 21.333333 0 0 1 256 128v85.333333h469.333333a170.666667 170.666667 0 0 1 0 341.333334H298.666667a85.333333 85.333333 0 0 0 0 170.666666h469.333333v-85.333333a21.333333 21.333333 0 0 1 36.266667-15.36l128 128a21.76 21.76 0 0 1 0 30.293333l-128 128A21.333333 21.333333 0 0 1 768 896v-85.333333z" p-id="20164"></path></svg>