<?xml version="1.0" standalone="no"?><!DOCTYPE svg PUBLIC "-//W3C//DTD SVG 1.1//EN" "http://www.w3.org/Graphics/SVG/1.1/DTD/svg11.dtd"><svg t="1665050161024" class="icon" viewBox="0 0 1024 1024" version="1.1" xmlns="http://www.w3.org/2000/svg" p-id="3052" xmlns:xlink="http://www.w3.org/1999/xlink" width="200" height="200"><path d="M266.24 757.76h425.984c9.556992 0 17.408 3.072 23.552 9.216s9.216 13.995008 9.216 23.552-3.072 17.408-9.216 23.552-13.995008 9.216-23.552 9.216H233.472c-9.556992 0-17.408-3.072-23.552-9.216s-9.216-13.995008-9.216-23.552V331.776c0-9.556992 3.072-17.408 9.216-23.552s13.995008-9.216 23.552-9.216 17.408 3.072 23.552 9.216 9.216 13.995008 9.216 23.552v425.984z m-9.216 56.32c-6.827008 6.144-14.676992 9.216-23.552 9.216s-16.555008-3.243008-23.04-9.728c-6.484992-6.484992-9.728-14.164992-9.728-23.04s3.072-16.724992 9.216-23.552l557.056-557.056c6.827008-6.144 14.676992-9.216 23.552-9.216s16.555008 3.243008 23.04 9.728c6.484992 6.484992 9.728 14.164992 9.728 23.04s-3.072 16.724992-9.216 23.552L257.024 814.08z" p-id="3053"></path></svg>